<svg
  xmlns="http://www.w3.org/2000/svg"
  viewBox="20 450 550 600"
>
  <path
    fill="currentColor"
    d="M253.17,1003.11c-6.88-1.56-13.81-2.91-20.62-4.71-20.44-5.41-39.74-13.71-58.22-23.9a240.3,240.3,0,0,1-38.06-26.11,253.28,253.28,0,0,1-21.9-20.29A265.57,265.57,0,0,1,79.94,883a253.9,253.9,0,0,1-33.28-89.74c-1.38-8.23-2.32-16.49-3-24.81C43,760.92,43,753.39,43,745.85c0-8,.89-16,1.66-24,.67-7,1.8-14,3.14-20.92a250.91,250.91,0,0,1,14.51-48.31,258.93,258.93,0,0,1,27.58-50.12,218.38,218.38,0,0,1,18.56-23.36c4.7-5.06,9.35-10.18,14.31-15a241.44,241.44,0,0,1,25.89-21.55,268.91,268.91,0,0,1,44.41-26,234.06,234.06,0,0,1,38.83-14.2c4.17-1.11,8.41-2,12.62-3,1.35-.05,2.81.35,3.89-.89a3.94,3.94,0,0,1,.9-.1c1.66-.11,3.47.54,4.86-.95l0-.07c1.68,0,3.45.46,4.88-.9l.88-.08c2-.06,4.08.61,5.84-.92h0c1.88,0,3.77,0,5.64-.12a7.5,7.5,0,0,0,2.11-.84l.9-.05c2.37,0,4.74.05,7.1-.08a10.32,10.32,0,0,0,2.62-.82l.9,0h3.9l27.06,0,1.85.06a10.76,10.76,0,0,0,2.62.83c2.36.13,4.73.07,7.1.08l8.61,1c1.77,1.49,3.87.86,5.86.92a216.94,216.94,0,0,1,26.32,5.62,261.65,261.65,0,0,1,58.22,23.93,246,246,0,0,1,37,25.11,252.4,252.4,0,0,1,26.32,24.74,259.14,259.14,0,0,1,57,99.49,222.61,222.61,0,0,1,8.31,37.06c.89,7.15,1.83,14.31,2.55,21.49.31,3.18.12,6.42.15,9.63a5,5,0,0,0-.77,1.68c-.07,3-.07,6.09,0,9.13a5,5,0,0,0,.77,1.68c.32,7.73-.71,15.37-1.6,23-.59,5.1-1.32,10.18-2.1,15.25a229.38,229.38,0,0,1-7.36,31.35,253.32,253.32,0,0,1-20,47.43,246.75,246.75,0,0,1-27.19,40.25,290.71,290.71,0,0,1-22.29,24,228.71,228.71,0,0,1-40.83,31.28c-7.57,4.55-15.22,9-23.13,12.9a240,240,0,0,1-61.4,20.69,273.69,273.69,0,0,1-28.1,3.81c-2.71.23-5.41.57-8.12.85l-28.89.12-3.84,0-.87-.07c-.86-.92-2-.86-3.12-.9a22.1,22.1,0,0,1-4.77-.28c-3.16-.84-6.34-.69-9.53-.71h0a7.71,7.71,0,0,0-2.08-.86c-1.55-.16-3.12-.1-4.67-.13h0C256.63,1002.62,254.85,1003.15,253.17,1003.11Zm-7.68-320.33c-1.05-1.29-2.51-1-3.88-1l-3.78-1c-.78-1-1.88-1-3-.9a223.43,223.43,0,0,1-26.68-9.65,237.16,237.16,0,0,1-71.52-48.94c-5.26-5.18-10.1-10.78-15.15-16.16a15.51,15.51,0,0,0-1.8-1.43c-.62.71-1.06,1.16-1.45,1.66a262.43,262.43,0,0,0-16.5,23.7,225.29,225.29,0,0,0-21.12,44.23,209.74,209.74,0,0,0-9.9,39.11c-.7,4.75-1.2,9.53-1.91,14.28a46.29,46.29,0,0,0-.72,11c.52.31,1,.84,1.57.9,1.43.14,2.89.1,4.33.1l207.09,0a35.29,35.29,0,0,0,3.85-.06,8.87,8.87,0,0,0,2.15-.86c1.71-1.38,1.65-3.33,1.65-5.25,0-12.78,0-25.56-.07-38.34a28.85,28.85,0,0,0-.77-4.66,6.51,6.51,0,0,0-2-.93c-2.21-.13-4.42-.07-6.63-.09l-8.61-1c-1.76-1.53-3.87-.78-5.85-.91l-6.65-1c-1.13-1.19-2.58-.88-4-.85l-4.75-1c-1.08-1.24-2.53-.94-3.91-.94Zm15.44-21.24h0a7.52,7.52,0,0,0,2,.91,31.21,31.21,0,0,0,3.75.08l7.7.93a10.08,10.08,0,0,0,2.61.85c2.68.13,5.37.07,8.06.08l1.84,0,1.07-.85c0-1,.05-1.93.05-2.89V523.32c0-.8,0-1.61,0-2.41s-.29-1.82-.49-3.06c-1.79.1-3.36.16-4.92.29-2.08.18-4.15.41-6.22.62-1.57,0-3.16-.08-4.72.06a7.54,7.54,0,0,0-2.11.85L258,521.61c-1.67.08-3.46-.42-4.87,1l-4.75,1c-1.39,0-2.84-.31-3.92.94-5.1,1.42-10.23,2.73-15.28,4.29a221.22,221.22,0,0,0-42.34,18.32,226.11,226.11,0,0,0-21.93,13.94,304.66,304.66,0,0,0-24.23,19.79c-1.29,1.14-2.86,2.14-3.29,4.07a5.68,5.68,0,0,0,.62,1.26c4.17,4.89,8.22,9.87,12.58,14.58a177.06,177.06,0,0,0,19.17,17.55,213.91,213.91,0,0,0,66.32,36.45c5.31,1.8,10.73,3.25,16.11,4.86,1.06,1.33,2.55.91,3.92.93a3.8,3.8,0,0,1,.89.11C258.12,661.92,259.57,661.52,260.93,661.54Zm27,101.3a8.23,8.23,0,0,0-2.11-.9,32.75,32.75,0,0,0-3.84-.05H74c-1.45,0-2.9,0-4.33.09-.56.06-1.07.59-1.6.9a1.52,1.52,0,0,0,0,.92c-.32,3.4.41,6.71.69,10.06a211.45,211.45,0,0,0,4,25.65A229.12,229.12,0,0,0,91.4,853a243,243,0,0,0,23.58,38,28.94,28.94,0,0,0,5.16,6,74.5,74.5,0,0,0,6.91-6.84A305.19,305.19,0,0,1,152,865.43a214.67,214.67,0,0,1,45.26-30,224,224,0,0,1,37.6-14.76,3,3,0,0,0,3-.91c4.48-1.11,8.94-2.32,13.45-3.33A163.09,163.09,0,0,1,272.44,813c2.37,0,4.74,0,7.11-.08a10.79,10.79,0,0,0,2.6-.84c.3,0,.61,0,.91,0,1.65,0,3.46.7,4.73-1,.3-5.08.79-10.16.86-15.24.14-9.57.06-19.15,0-28.72a15,15,0,0,0-.67-3.19A2,2,0,0,0,287.93,762.84ZM388.26,538c2,2.49,4,5,6.09,7.46,8.87,10.28,16,21.71,22.47,33.59a273.75,273.75,0,0,1,18.59,43.35c2.21,6.53,4,13.21,6.06,19.79.56,1.78.63,3.9,2.64,4.93,1.46,1.47,3.32.89,5,.9q27.12,0,54.23,0a32.77,32.77,0,0,0,3.84-.1c.54-.07,1-.6,1.55-.92a19.3,19.3,0,0,0-1-3.15c-2-3.83-4.08-7.66-6.24-11.41a222.63,222.63,0,0,0-29.44-39.81,232.87,232.87,0,0,0-34.83-31,203,203,0,0,0-49-26.51c-.41-.55-1-1-1.56-.46s-.23,1.12.3,1.56c.14.26.27.53.4.8ZM507.84,853.42c-1.49-1.39-3.34-.82-5-.82q-25.86-.06-51.73,0c-1.6,0-3.2-.08-4.79,0a7.51,7.51,0,0,0-2.12.86,14.85,14.85,0,0,0-1.9,2.65,41,41,0,0,0-1.69,5c-3.19,11.09-6.75,22.06-11,32.8a252.47,252.47,0,0,1-22.93,44.89,260.25,260.25,0,0,1-19.44,25.65,4.82,4.82,0,0,0-1.09.83,4.34,4.34,0,0,0-.44,1.24c.53.07,1.14.33,1.58.17a10,10,0,0,0,1.93-1.23c.3-.06.59-.13.89-.22a1.65,1.65,0,0,0,1.9-.84,220.34,220.34,0,0,0,26.31-13,225.19,225.19,0,0,0,39.09-28.8,251.07,251.07,0,0,0,20.16-20.71,236.24,236.24,0,0,0,25.48-36.17c1.93-3.34,3.57-6.83,5.35-10.26A1.38,1.38,0,0,0,507.84,853.42ZM313,981.94c.6.95,1.25.93,1.93.09,2.44-.79,4.87-1.6,7.32-2.35a92.42,92.42,0,0,0,25-12.15A124.56,124.56,0,0,0,372,944.92a200.53,200.53,0,0,0,26.19-40.17,274,274,0,0,0,17.2-43.27c.7-2.28,1.16-4.64,1.73-7-.5-.32-1-.86-1.51-.92a32.77,32.77,0,0,0-3.84-.09H318.45a32.77,32.77,0,0,0-3.84.09c-.53.06-1,.6-1.51.92-.05,1.76-.14,3.52-.14,5.28q0,18.51,0,37Q313,939.39,313,981.94Zm0-463.26c0,1.28-.09,2.56-.09,3.84q0,60.35,0,120.69c0,1.28.08,2.56.12,3.84,1.39,1.63,3.28,1,5,1q47.11.06,94.22,0a23.5,23.5,0,0,0,3.36-.09,5.44,5.44,0,0,0,1.61-.88,30.82,30.82,0,0,0-.67-4.23c-6.92-23-16.07-45.08-28.87-65.5C378.63,563,368.31,549.69,355,539c-9.46-7.62-19.68-13.86-31.37-17.47-2.91-.9-5.8-1.87-8.7-2.8C314.3,517.8,313.65,517.66,313,518.68ZM449,672.14c.1,1.43.11,2.88.32,4.3,1.42,10,3.15,19.91,4.26,29.92,1,9.22,1.67,18.51,2,27.78a475.27,475.27,0,0,1-.92,49.5c0,.32-.05.64-.09,1-.86,7.47-1.65,14.95-2.61,22.4-.74,5.71-1.73,11.38-2.55,17.08-.21,1.42-.22,2.86-.32,4.29,1.17,1.63,2.92,1,4.43,1q30,.06,60,0a26.68,26.68,0,0,0,3.35-.08,6,6,0,0,0,1.69-.78c2.12-1,2.69-3.15,3.32-5.1,1.55-4.72,3.06-9.47,4.33-14.28,2.2-8.38,4.28-16.79,5.08-25.46.44-4.79,1.47-9.55,1.58-14.34.32-14,.59-27.94-.58-41.91A219,219,0,0,0,529,703.63a245.21,245.21,0,0,0-7.19-26.47c-.61-1.94-1.12-4.1-3.29-5.1-1.49-1.4-3.34-.85-5-.85q-29.52,0-59.05,0a35.11,35.11,0,0,0-3.84.08A5.26,5.26,0,0,0,449,672.14ZM275.44,981.81l2.81.17a15.78,15.78,0,0,0,9.39.33c.13,0,.22-.21.33-.32,0-1.76.15-3.53.15-5.29q0-67.05,0-134.09c0-1.13.05-2.26,0-3.38-.06-.91-.28-1.81-.41-2.63-7.09-1-25.78,1.67-42.83,6.52a205.91,205.91,0,0,0-72.06,36.76c-13.25,10.48-25.41,22.09-35.7,35.71A18.9,18.9,0,0,0,139,918a270.06,270.06,0,0,0,27,22.45,228,228,0,0,0,31,18.47,247.8,247.8,0,0,0,46.47,17.1,2.89,2.89,0,0,0,3,.84l.86.13c1.09,1.24,2.53,1,3.92.93l16.34,2.92a7.47,7.47,0,0,0,2.12.85C271.66,981.86,273.55,981.8,275.44,981.81ZM313,828.34c.52.34,1,.88,1.56,1a22,22,0,0,0,3.36.11h101.1a19.72,19.72,0,0,0,3.36-.14c.53-.09,1-.71,1.44-1.08a15.24,15.24,0,0,1,.21-1.92,279.09,279.09,0,0,0,5.39-33.62c1-10,1.5-20.11,2-30.18.63-12.66-.24-25.31-.95-38-.21-3.67-.64-7.33-1.08-11-.83-6.83-1.75-13.64-2.63-20.47-.67-5.23-1.26-10.48-2.06-15.7-.3-2-.37-4.26-2.66-5.32-1.49-1.42-3.34-.86-5.05-.86q-49.29,0-98.58,0a32.77,32.77,0,0,0-3.84.09c-.54.07-1,.61-1.54.93,0,1.6-.11,3.21-.11,4.81q0,73.25,0,146.5C313,825.13,313,826.74,313,828.34Z"
  />
</svg>
