<svg xmlns="http://www.w3.org/2000/svg" width="1000" height="103" viewBox="0 0 1000 103">
  <defs>
    <style>
      .cls-1, .cls-2 {
        fill: #fff;
        fill-rule: evenodd;
      }

      .cls-1 {
        stroke: #fff;
        stroke-linejoin: round;
        stroke-width: 1px;
      }
    </style>
  </defs>
  <path id="ADDED_TO_ACCOUNT_" data-name="ADDED TO ACCOUNT!" class="cls-1" d="M23.642,98.765l2.465-4.873h22.5l2.465,4.873H72.138l-22.356-41.9H25.046L2.518,98.765H23.642Zm1.777-41.331h23.99L71.135,98.191H51.416l-2.465-4.872H25.763L23.3,98.191H3.521Zm18.6,26.082q-3.525-7.108-6.105-12.64H36.741l-6.1,12.64H44.021ZM37.084,71.478h0.487L38.26,72.94q0.688,1.462,2.064,4.328t2.752,5.646H31.581q3.124-6.277,5.5-11.436h0Zm74.837,27.286a42.4,42.4,0,0,0,10.491-1.132,19.136,19.136,0,0,0,7.437-3.626,14.8,14.8,0,0,0,4.529-6.506,28.155,28.155,0,0,0,1.476-9.688,28.156,28.156,0,0,0-1.476-9.688,14.8,14.8,0,0,0-4.529-6.506,19.143,19.143,0,0,0-7.437-3.626,42.429,42.429,0,0,0-10.491-1.132H74.747v41.9h37.175ZM75.348,57.434h36.573q12.267,0,17.814,4.83t5.546,15.549q0,10.72-5.546,15.549t-17.814,4.829H75.348V57.434Zm30.468,28.891q4.671,0,7.108-2.164t2.437-6.349q0-4.185-2.437-6.349T105.816,69.3H93.406V86.325h12.41ZM94.007,69.873h11.809a10.2,10.2,0,0,1,6.621,1.92q2.351,1.921,2.35,6.019,0,7.911-8.971,7.911H94.007V69.873Zm83.522,28.891a42.39,42.39,0,0,0,10.49-1.132,19.133,19.133,0,0,0,7.438-3.626,14.805,14.805,0,0,0,4.529-6.506,28.179,28.179,0,0,0,1.476-9.688,28.18,28.18,0,0,0-1.476-9.688,14.808,14.808,0,0,0-4.529-6.506,19.14,19.14,0,0,0-7.438-3.626,42.415,42.415,0,0,0-10.49-1.132H140.354v41.9h37.175ZM140.956,57.434h36.573q12.267,0,17.813,4.83t5.546,15.549q0,10.72-5.546,15.549t-17.813,4.829H140.956V57.434Zm30.468,28.891q4.671,0,7.108-2.164t2.436-6.349q0-4.185-2.436-6.349T171.424,69.3H159.013V86.325h12.411ZM159.615,69.873h11.809a10.2,10.2,0,0,1,6.621,1.92q2.349,1.921,2.35,6.019,0,7.911-8.971,7.911H159.615V69.873Zm99.773,28.891V87.5H225.223V82.026h32.044V72.4H225.223v-4.93H258.9V56.861H205.962v41.9h53.426ZM206.563,57.434h51.764v9.459H224.621V73h32.073v8.455H224.621v6.621h34.165V98.191H206.563V57.434Zm94.786,41.331a42.39,42.39,0,0,0,10.49-1.132,19.133,19.133,0,0,0,7.438-3.626,14.805,14.805,0,0,0,4.529-6.506,28.155,28.155,0,0,0,1.476-9.688,28.156,28.156,0,0,0-1.476-9.688,14.808,14.808,0,0,0-4.529-6.506,19.14,19.14,0,0,0-7.438-3.626,42.415,42.415,0,0,0-10.49-1.132H264.174v41.9h37.175ZM264.776,57.434h36.573q12.267,0,17.814,4.83t5.546,15.549q0,10.72-5.546,15.549t-17.814,4.829H264.776V57.434Zm30.468,28.891q4.671,0,7.108-2.164t2.437-6.349q0-4.185-2.437-6.349T295.244,69.3H282.833V86.325h12.411ZM283.435,69.873h11.809a10.2,10.2,0,0,1,6.621,1.92q2.351,1.921,2.35,6.019,0,7.911-8.971,7.911H283.435V69.873Zm86.5,1.49v27.4H389.17v-27.4h19.777v-14.5H350.189v14.5h19.748Zm-19.146-13.93h57.582V70.762H388.6v27.43H370.511V70.762h-19.72V57.434ZM445.147,100.4q17.11,0,25.251-5.489t8.14-17.1q0-11.608-8.14-17.111t-25.251-5.5q-17.112,0-25.251,5.5t-8.14,17.111q0,11.608,8.14,17.1T445.147,100.4Zm0-44.6q16.881,0,24.85,5.346t7.968,16.667q0,11.322-7.968,16.667t-24.85,5.346q-16.882,0-24.85-5.346t-7.968-16.667q0-11.321,7.968-16.667T445.147,55.8Zm0,31.815q6.248,0,9.573-2.522a8.585,8.585,0,0,0,3.325-7.28,8.586,8.586,0,0,0-3.325-7.28q-3.326-2.522-9.573-2.522t-9.588,2.522a8.57,8.57,0,0,0-3.339,7.28,8.569,8.569,0,0,0,3.339,7.28Q438.9,87.615,445.147,87.615Zm0-19.032q6.046,0,9.186,2.379a8.078,8.078,0,0,1,3.139,6.85,8.039,8.039,0,0,1-3.139,6.836q-3.138,2.365-9.186,2.365t-9.186-2.365a8.036,8.036,0,0,1-3.139-6.836,8.076,8.076,0,0,1,3.139-6.85Q439.1,68.584,445.147,68.583Zm77.731,30.181,2.465-4.873h22.5l2.465,4.873h21.067l-22.357-41.9H524.283l-22.528,41.9h21.123Zm1.778-41.331h23.99l21.726,40.757h-19.72l-2.465-4.872H525l-2.465,4.872H502.758Zm18.6,26.082q-3.525-7.108-6.1-12.64h-1.175l-6.105,12.64h13.385Zm-6.936-12.038h0.487L537.5,72.94q0.689,1.462,2.064,4.328t2.751,5.646H530.818q3.123-6.277,5.5-11.436h0ZM577.265,94.9q8.067,5.5,24.836,5.5,16.566,0,24.549-4.93t8.211-15.134H612.1a6.811,6.811,0,0,1-2.924,4.83q-2.551,1.849-7.309,1.849-5.56,0-8.584-2.379a8.167,8.167,0,0,1-3.024-6.822,8.209,8.209,0,0,1,3.024-6.836q3.024-2.393,8.584-2.393a12.86,12.86,0,0,1,7.223,1.748,6.057,6.057,0,0,1,2.952,4.07h22.7q-0.173-9.6-8.169-14.4T602.1,55.2q-16.769,0-24.836,5.5T569.2,77.813Q569.2,89.392,577.265,94.9ZM602.1,55.8q15.821,0,23.732,4.457a15.5,15.5,0,0,1,8.341,13.572H612.505a6.571,6.571,0,0,0-3.54-4.228,14.605,14.605,0,0,0-7.094-1.591q-5.818,0-9.014,2.565a8.751,8.751,0,0,0-3.2,7.237,8.75,8.75,0,0,0,3.2,7.237q3.195,2.565,9.014,2.565a13.66,13.66,0,0,0,7.309-1.748,7.27,7.27,0,0,0,3.44-4.959h21.668q-0.429,9.688-8.3,14.3T602.1,99.825q-16.6,0-24.463-5.374T569.77,77.813q0-11.264,7.868-16.638T602.1,55.8h0Zm44.584,39.1q8.067,5.5,24.835,5.5,16.568,0,24.549-4.93t8.212-15.134H681.523a6.81,6.81,0,0,1-2.923,4.83q-2.552,1.849-7.309,1.849-5.561,0-8.584-2.379a8.165,8.165,0,0,1-3.024-6.822,8.206,8.206,0,0,1,3.024-6.836q3.022-2.393,8.584-2.393a12.862,12.862,0,0,1,7.223,1.748,6.06,6.06,0,0,1,2.952,4.07h22.7Q704,64.8,696,60T671.52,55.2q-16.767,0-24.835,5.5t-8.069,17.111Q638.616,89.392,646.685,94.9ZM671.52,55.8q15.822,0,23.732,4.457a15.5,15.5,0,0,1,8.341,13.572H681.925a6.571,6.571,0,0,0-3.54-4.228,14.608,14.608,0,0,0-7.094-1.591q-5.818,0-9.014,2.565a8.751,8.751,0,0,0-3.2,7.237,8.75,8.75,0,0,0,3.2,7.237q3.195,2.565,9.014,2.565a13.66,13.66,0,0,0,7.309-1.748,7.269,7.269,0,0,0,3.439-4.959h21.669q-0.43,9.688-8.3,14.3t-23.89,4.615q-16.594,0-24.463-5.374t-7.868-16.638q0-11.264,7.868-16.638T671.52,55.8h0Zm69.907,44.6q17.112,0,25.251-5.489t8.14-17.1q0-11.608-8.14-17.111t-25.251-5.5q-17.111,0-25.251,5.5t-8.14,17.111q0,11.608,8.14,17.1T741.427,100.4Zm0-44.6q16.881,0,24.85,5.346t7.968,16.667q0,11.322-7.968,16.667t-24.85,5.346q-16.883,0-24.85-5.346t-7.968-16.667q0-11.321,7.968-16.667T741.427,55.8Zm0,31.815q6.249,0,9.573-2.522a8.583,8.583,0,0,0,3.325-7.28A8.584,8.584,0,0,0,751,70.532q-3.325-2.522-9.573-2.522t-9.587,2.522a8.569,8.569,0,0,0-3.34,7.28,8.568,8.568,0,0,0,3.34,7.28Q735.178,87.615,741.427,87.615Zm0-19.032q6.048,0,9.186,2.379a8.076,8.076,0,0,1,3.139,6.85,8.036,8.036,0,0,1-3.139,6.836q-3.138,2.365-9.186,2.365t-9.186-2.365a8.039,8.039,0,0,1-3.139-6.836,8.078,8.078,0,0,1,3.139-6.85Q735.379,68.584,741.427,68.583ZM781.21,89.478A14.763,14.763,0,0,0,787,95.913a27.694,27.694,0,0,0,9.329,3.439,70.175,70.175,0,0,0,13.056,1.046,78.271,78.271,0,0,0,10.677-.645,35.75,35.75,0,0,0,8.355-2.135,17.68,17.68,0,0,0,6.105-3.9,15.954,15.954,0,0,0,3.64-5.933,24.421,24.421,0,0,0,1.261-8.226v-22.7H820.191V78.7a6.561,6.561,0,0,1-2.824,5.818q-2.823,1.921-7.982,1.92-5.217,0-8.011-1.92a6.583,6.583,0,0,1-2.8-5.818V56.861H779.318v22.7A23.306,23.306,0,0,0,781.21,89.478Zm-1.29-32.044h18.057V78.7a7.169,7.169,0,0,0,2.924,6.191q2.924,2.121,8.484,2.121,5.532,0,8.455-2.135a7.178,7.178,0,0,0,2.924-6.177V57.434H838.85V79.561q0,7.223-3.039,11.651t-9.472,6.521q-6.435,2.092-16.954,2.092-15.708,0-22.586-4.729T779.92,79.561V57.434Zm82.92,41.331v-21.3H863.3l20.035,21.3h21.9v-41.9H887.088V77.87H886.6L866.824,56.861H844.7v41.9H862.84ZM845.3,57.434h21.3l19.776,21.009h1.29V57.434h16.968V98.191H883.562L863.556,76.867h-1.289V98.191H845.3V57.434Zm83.98,13.93v27.4h19.232v-27.4h19.777v-14.5H909.53v14.5h19.749Zm-19.147-13.93h57.582V70.762H947.938v27.43H929.852V70.762h-19.72V57.434ZM975.023,82.2h16.194l2.523-17.885V56.861H972.558v7.452ZM973.16,57.434h20.006v6.822L990.7,81.625H975.568L973.16,64.255V57.434Zm19.548,41.331V85.322H973.562V98.765h19.146ZM974.135,85.9h17.971v12.3H974.135V85.9Z"/>
  <path id="FREE_SESSION_CREDIT" data-name="FREE SESSION CREDIT" class="cls-2" d="M21.422,47.788v-13.1H51.845V22.594H21.422V15.519H53.629V2.814H2.534V47.788H21.422Zm54.479,0V35.33H88.7l7.29,12.458h20.856L106.662,31.451V30.82a12.527,12.527,0,0,0,6.875-4.177q2.323-2.957,2.323-8.37a19.031,19.031,0,0,0-1.015-6.564,11.944,11.944,0,0,0-3.307-4.815,14.628,14.628,0,0,0-6.214-3.067A38.612,38.612,0,0,0,95.8,2.814H57.013V47.788H75.9Zm0-31.5H90.02a5.614,5.614,0,0,1,3.691.946,3.785,3.785,0,0,1,1.077,2.992,3.6,3.6,0,0,1-1.077,2.9,5.754,5.754,0,0,1-3.691.915H75.9V16.288Zm94.5,31.5V36.5H137.947V30.346H168.37V19.057H137.947v-4.8h32.084V2.814H119.059V47.788H170.4Zm55.125,0V36.5H193.072V30.346H223.5V19.057H193.072v-4.8h32.084V2.814H174.184V47.788h51.342Zm25.04-8.89a11.738,11.738,0,0,0,2.814,4.368A16.76,16.76,0,0,0,257.7,46.3a24,24,0,0,0,6,1.907,63.416,63.416,0,0,0,7.46.984q3.921,0.292,9.028.292,3.906,0,7.029-.138t6.122-.46a40.063,40.063,0,0,0,5.291-.89,28.914,28.914,0,0,0,4.322-1.426,13.358,13.358,0,0,0,3.43-2.04,12.382,12.382,0,0,0,2.414-2.746,11.554,11.554,0,0,0,1.508-3.575,18.927,18.927,0,0,0,.492-4.495,14.3,14.3,0,0,0-1.23-6.12,11.1,11.1,0,0,0-3.6-4.343,19.022,19.022,0,0,0-5.537-2.705,36.487,36.487,0,0,0-7.321-1.391L277.482,17.7a12.885,12.885,0,0,1-4.337-.881,1.96,1.96,0,0,1-1.139-1.839,2.117,2.117,0,0,1,1.6-1.947,17.844,17.844,0,0,1,5.876-.649,13.886,13.886,0,0,1,6.029,1.032,3.6,3.6,0,0,1,2.245,2.875H308.8a14.929,14.929,0,0,0-1.138-5.337,11.23,11.23,0,0,0-2.891-4.014,17.707,17.707,0,0,0-4.338-2.8,25.834,25.834,0,0,0-5.783-1.8,60.693,60.693,0,0,0-6.906-.954q-3.584-.292-7.983-0.292-5.383,0-9.6.4a46.031,46.031,0,0,0-7.983,1.447,21.2,21.2,0,0,0-6.26,2.74,11.892,11.892,0,0,0-3.907,4.4,12.557,12.557,0,0,0-1.384,6.126,13.416,13.416,0,0,0,.954,5.388,10.673,10.673,0,0,0,2.461,3.756,13.419,13.419,0,0,0,3.891,2.524,25.794,25.794,0,0,0,4.8,1.6,49.418,49.418,0,0,0,5.614.894l14.612,1.639a11.551,11.551,0,0,1,4.522,1.1,2.376,2.376,0,0,1,1.2,2.117,2.141,2.141,0,0,1-1.753,1.978,22.6,22.6,0,0,1-6.491.618,18.48,18.48,0,0,1-7.029-1,4.165,4.165,0,0,1-2.476-3.833H249.489A18.819,18.819,0,0,0,250.566,38.9Zm114.987,8.89V36.5H333.1V30.346h30.424V19.057H333.1v-4.8h32.085V2.814H314.212V47.788h51.341Zm3.261-8.89a11.738,11.738,0,0,0,2.814,4.368,16.76,16.76,0,0,0,4.322,3.03,24,24,0,0,0,6,1.907,63.416,63.416,0,0,0,7.46.984q3.921,0.292,9.028.292,3.906,0,7.029-.138t6.122-.46a40.063,40.063,0,0,0,5.291-.89,28.914,28.914,0,0,0,4.322-1.426,13.358,13.358,0,0,0,3.43-2.04,12.412,12.412,0,0,0,2.415-2.746,11.577,11.577,0,0,0,1.507-3.575,18.927,18.927,0,0,0,.492-4.495,14.3,14.3,0,0,0-1.23-6.12,11.1,11.1,0,0,0-3.6-4.343,19.022,19.022,0,0,0-5.537-2.705,36.487,36.487,0,0,0-7.321-1.391L395.73,17.7a12.885,12.885,0,0,1-4.337-.881,1.959,1.959,0,0,1-1.138-1.839,2.116,2.116,0,0,1,1.6-1.947,17.844,17.844,0,0,1,5.876-.649,13.886,13.886,0,0,1,6.029,1.032,3.6,3.6,0,0,1,2.246,2.875h21.041a14.951,14.951,0,0,0-1.139-5.337,11.23,11.23,0,0,0-2.891-4.014,17.707,17.707,0,0,0-4.338-2.8,25.834,25.834,0,0,0-5.783-1.8,60.693,60.693,0,0,0-6.906-.954q-3.583-.292-7.983-0.292-5.384,0-9.6.4a46.031,46.031,0,0,0-7.983,1.447,21.2,21.2,0,0,0-6.26,2.74,11.892,11.892,0,0,0-3.907,4.4,12.557,12.557,0,0,0-1.384,6.126,13.416,13.416,0,0,0,.954,5.388,10.673,10.673,0,0,0,2.461,3.756,13.419,13.419,0,0,0,3.891,2.524,25.794,25.794,0,0,0,4.8,1.6,49.418,49.418,0,0,0,5.614.894l14.612,1.639a11.546,11.546,0,0,1,4.522,1.1,2.376,2.376,0,0,1,1.2,2.117,2.141,2.141,0,0,1-1.753,1.978,22.6,22.6,0,0,1-6.491.618,18.48,18.48,0,0,1-7.029-1,4.165,4.165,0,0,1-2.476-3.833H367.737A18.819,18.819,0,0,0,368.814,38.9Zm63.123,0a11.738,11.738,0,0,0,2.814,4.368,16.76,16.76,0,0,0,4.322,3.03,24,24,0,0,0,6,1.907,63.416,63.416,0,0,0,7.46.984q3.921,0.292,9.028.292,3.906,0,7.029-.138t6.122-.46a40.063,40.063,0,0,0,5.291-.89,28.914,28.914,0,0,0,4.322-1.426,13.358,13.358,0,0,0,3.43-2.04,12.412,12.412,0,0,0,2.415-2.746,11.577,11.577,0,0,0,1.507-3.575,18.927,18.927,0,0,0,.492-4.495,14.3,14.3,0,0,0-1.23-6.12,11.1,11.1,0,0,0-3.6-4.343,19.022,19.022,0,0,0-5.537-2.705,36.487,36.487,0,0,0-7.321-1.391L458.853,17.7a12.885,12.885,0,0,1-4.337-.881,1.959,1.959,0,0,1-1.138-1.839,2.116,2.116,0,0,1,1.6-1.947,17.844,17.844,0,0,1,5.876-.649,13.886,13.886,0,0,1,6.029,1.032,3.6,3.6,0,0,1,2.246,2.875h21.041a14.951,14.951,0,0,0-1.139-5.337,11.23,11.23,0,0,0-2.891-4.014,17.707,17.707,0,0,0-4.338-2.8,25.834,25.834,0,0,0-5.783-1.8,60.693,60.693,0,0,0-6.906-.954q-3.584-.292-7.982-0.292-5.385,0-9.6.4a46.031,46.031,0,0,0-7.983,1.447,21.2,21.2,0,0,0-6.26,2.74,11.892,11.892,0,0,0-3.907,4.4A12.568,12.568,0,0,0,432,16.208a13.433,13.433,0,0,0,.954,5.388,10.673,10.673,0,0,0,2.461,3.756,13.419,13.419,0,0,0,3.891,2.524,25.819,25.819,0,0,0,4.8,1.6,49.418,49.418,0,0,0,5.614.894l14.612,1.639a11.546,11.546,0,0,1,4.522,1.1,2.375,2.375,0,0,1,1.2,2.117A2.141,2.141,0,0,1,468.3,37.2a22.6,22.6,0,0,1-6.491.618,18.484,18.484,0,0,1-7.029-1,4.165,4.165,0,0,1-2.476-3.833H430.86A18.819,18.819,0,0,0,431.937,38.9Zm82.533,8.89V2.814H495.583V47.788H514.47Zm36.576,1.692q16.8,0,24.9-5.922t8.105-18.27q0-12.349-8.105-18.272t-24.9-5.924q-16.8,0-24.9,5.924t-8.105,18.272q0,12.349,8.105,18.27T551.046,49.48Zm0-34.545q12.366,0,12.366,10.351T551.046,35.637q-12.336,0-12.335-10.351t12.335-10.351h0ZM605.4,47.788V23.979h0.4l18.949,23.809h21.472V2.814h-17.75V26.378h-0.4L609.37,2.814H587.652V47.788H605.4Zm98.653,1.692q16.181,0,24.055-5.23t8.122-15.688h-21.78a9.223,9.223,0,0,1-.676,2.8,6.512,6.512,0,0,1-1.646,2.215,7.38,7.38,0,0,1-3.153,1.538,19.983,19.983,0,0,1-4.922.523q-5.907,0-8.844-2.649t-2.938-7.7q0-5.053,2.938-7.7t8.844-2.649q9.627,0,10.274,6.029h21.78Q735.615,1.092,704.055,1.092q-16.4,0-24.425,5.939T671.6,25.288q0,12.318,8.029,18.255t24.425,5.937h0Zm54.663-1.692V35.33h12.8l7.291,12.458h20.856L789.48,31.451V30.82a12.527,12.527,0,0,0,6.875-4.177q2.322-2.957,2.323-8.37a19.055,19.055,0,0,0-1.015-6.564,11.944,11.944,0,0,0-3.307-4.815,14.628,14.628,0,0,0-6.214-3.067,38.616,38.616,0,0,0-9.521-1.012h-38.79V47.788h18.887Zm0-31.5h14.12a5.612,5.612,0,0,1,3.691.946,3.784,3.784,0,0,1,1.077,2.992,3.6,3.6,0,0,1-1.077,2.9,5.753,5.753,0,0,1-3.691.915h-14.12V16.288Zm94.5,31.5V36.5H820.765V30.346h30.423V19.057H820.765v-4.8h32.084V2.814H801.877V47.788h51.341Zm36.545,0a50.016,50.016,0,0,0,11.813-1.2,20.517,20.517,0,0,0,8.152-3.876,15.516,15.516,0,0,0,4.829-6.952A31.1,31.1,0,0,0,916.1,25.3a31.1,31.1,0,0,0-1.538-10.459,15.518,15.518,0,0,0-4.829-6.952,20.516,20.516,0,0,0-8.152-3.876,50.015,50.015,0,0,0-11.813-1.2H857V47.788h32.761ZM875.89,16.042H884.6q5.691,0,8.26,2.138t2.568,7.121q0,4.983-2.568,7.121t-8.26,2.138H875.89V16.042Zm62.661,31.746V2.814H919.664V47.788h18.887Zm20.765-31.5v31.5h18.918v-31.5H995.8V2.814H941.751V16.288h17.565Z"/>
</svg>
