<?xml version="1.0" standalone="no"?>
<!DOCTYPE svg PUBLIC "-//W3C//DTD SVG 20010904//EN"
 "http://www.w3.org/TR/2001/REC-SVG-20010904/DTD/svg10.dtd">
<svg version="1.0" xmlns="http://www.w3.org/2000/svg"
 width="730.000000pt" height="730.000000pt" viewBox="0 0 730.000000 730.000000"
 preserveAspectRatio="xMidYMid meet">
<metadata>
Created by potrace 1.11, written by Peter Selinger 2001-2013
</metadata>
<g transform="translate(0.000000,730.000000) scale(0.100000,-0.100000)"
fill="#000000" stroke="none">
<path d="M3370 7293 c-272 -29 -465 -62 -655 -113 -396 -106 -740 -261 -1100
-499 -142 -94 -202 -140 -350 -267 -496 -426 -869 -982 -1078 -1604 -233 -696
-248 -1467 -43 -2178 117 -403 329 -825 584 -1165 120 -159 171 -219 310 -361
241 -245 437 -400 733 -579 492 -296 1028 -467 1614 -514 167 -13 553 -6 655
12 8 1 47 6 85 10 205 20 567 111 813 204 193 73 490 217 584 282 14 11 29 19
32 19 3 0 60 37 128 82 676 450 1188 1127 1442 1905 78 240 136 519 160 766
15 154 18 538 4 682 -93 1014 -594 1931 -1399 2562 -90 71 -315 219 -441 291
-385 218 -849 378 -1268 436 -37 5 -114 16 -165 22 -42 6 -602 12 -645 7z
m108 -1383 l0 -1040 -26 0 c-28 0 -186 17 -237 26 -195 32 -326 64 -495 120
-281 95 -562 241 -810 422 -168 123 -402 342 -527 495 l-56 68 51 49 c425 401
926 671 1507 813 155 39 430 81 552 85 l41 2 0 -1040z m504 989 c530 -172
1001 -765 1277 -1609 22 -69 42 -136 43 -150 l3 -25 -740 0 -740 0 -2 913 -2
913 37 -7 c20 -4 76 -19 124 -35z m1041 -244 c595 -268 1116 -733 1461 -1303
48 -80 126 -225 126 -235 0 -1 -211 -3 -469 -3 l-468 1 -42 145 c-79 268 -208
594 -318 800 -116 216 -289 474 -398 592 -22 24 -46 51 -54 61 -13 16 -12 17
11 8 14 -5 82 -35 151 -66z m-3863 -997 c134 -154 350 -355 515 -479 337 -255
667 -417 1125 -554 108 -32 369 -80 495 -91 33 -3 69 -7 80 -9 11 -2 39 -4 61
-4 l42 -1 1 -345 0 -345 -1565 0 -1566 0 7 78 c49 562 212 1046 508 1517 64
102 214 305 225 305 5 0 38 -33 72 -72z m4233 -898 c13 -13 60 -301 81 -495
34 -304 39 -797 12 -1100 -18 -191 -42 -375 -72 -535 l-16 -88 -786 1 -787 2
-2 1100 c-1 605 -1 1105 1 1110 4 11 1559 15 1569 5z m1370 0 c11 -11 71 -215
102 -345 64 -267 88 -485 88 -785 -1 -342 -57 -690 -159 -996 -15 -44 -32 -82
-38 -86 -6 -4 -235 -7 -509 -6 l-498 0 5 27 c28 133 64 407 85 656 11 132 11
698 0 850 -15 198 -57 535 -84 665 l-6 26 505 -1 c277 0 506 -2 509 -5z
m-3286 -1627 c2 -263 -1 -343 -10 -344 -7 0 -28 -2 -47 -4 -19 -2 -66 -6 -105
-10 -567 -52 -1161 -287 -1640 -648 -167 -126 -406 -350 -536 -502 -23 -27
-46 -50 -50 -50 -12 0 -112 135 -204 275 -284 430 -459 917 -519 1440 -9 74
-16 147 -16 162 l0 26 1563 -1 1562 -2 2 -342z m1 -1735 l1 -1038 -47 0 c-67
0 -278 27 -402 51 -614 119 -1209 421 -1635 830 l-69 67 86 98 c412 472 941
800 1528 949 161 41 434 84 517 81 l21 0 0 -1038z m1832 783 c0 -5 -22 -76
-49 -157 -251 -765 -648 -1317 -1116 -1548 -101 -51 -261 -106 -305 -106 -18
0 -18 39 -19 910 l0 910 745 0 c430 0 744 -4 744 -9z m1300 3 c0 -9 -106 -199
-161 -287 -305 -488 -774 -919 -1284 -1177 -109 -55 -223 -107 -303 -138 -9
-3 8 22 38 57 301 343 534 782 704 1321 25 80 50 164 56 188 l11 42 469 0
c259 0 470 -3 470 -6z"/>
</g>
</svg>
