<svg xmlns="http://www.w3.org/2000/svg" width="70" height="70" viewBox="0 0 86.19 118.45">
  <defs>
    <style>
      .cls-1 {
        fill: #fff;
      }
      .cls-2 {
        fill: #aeaed7;
      }
      .cls-3 {
        fill: #010101;
      }
    </style>
  </defs>
  <path
    class="cls-1"
    d="M8,39.74H9.13l.19,2.47v.48h.11v-.48l.19-2.47h1.09V43h-.57v-2.2l.06-.75h-.11l-.25,3H8.91l-.25-3H8.55l0,.75V43H8Z"
    transform="translate(0)"
  />
  <path
    class="cls-1"
    d="M12.8,42.33H11.69l-.16.7h-.65l.78-3.29h1.17L13.61,43H13Zm-1-.6h.85l-.38-1.68H12.2Z"
    transform="translate(0)"
  />
  <path
    class="cls-1"
    d="M15.56,42.72h.09v-3h.62V43H15.06l-.39-3h-.08v3H14V39.74h1.21Z"
    transform="translate(0)"
  />
  <path
    class="cls-1"
    d="M18.55,42.33H17.43l-.16.7h-.64l.78-3.29h1.16L19.36,43h-.65Zm-1-.6h.85L18,40.05H18Z"
    transform="translate(0)"
  />
  <path
    class="cls-1"
    d="M20.65,41.37h1.41V43h-.57v-.37h-.08a.58.58,0,0,1-.22.31.76.76,0,0,1-.48.13,1,1,0,0,1-.42-.09,1,1,0,0,1-.34-.25,1.25,1.25,0,0,1-.23-.41,1.72,1.72,0,0,1-.09-.58V41a1.4,1.4,0,0,1,.1-.56A1.09,1.09,0,0,1,20,40a1,1,0,0,1,.39-.25,1.3,1.3,0,0,1,.49-.09,1.36,1.36,0,0,1,.51.09,1.21,1.21,0,0,1,.37.25,1.17,1.17,0,0,1,.24.38,1.45,1.45,0,0,1,.08.47v.06h-.62v-.06a.59.59,0,0,0-1-.42.84.84,0,0,0-.17.6v.69c0,.51.21.76.62.76a.51.51,0,0,0,.57-.54h-.79Z"
    transform="translate(0)"
  />
  <path
    class="cls-1"
    d="M22.69,39.74h2.07v.6H23.31v.75H24.7v.59H23.31v.76h1.51V43H22.69Z"
    transform="translate(0)"
  />
  <path
    class="cls-1"
    d="M27.72,43H27.1V42a.28.28,0,0,0-.06-.18.21.21,0,0,0-.19-.07h-.71V43h-.62V39.74h1.25a1.52,1.52,0,0,1,.45.07.92.92,0,0,1,.32.2.84.84,0,0,1,.2.29,1,1,0,0,1,.07.35v.11a.73.73,0,0,1-.11.38.64.64,0,0,1-.33.27v.09a.36.36,0,0,1,.35.39ZM26.14,41.2h.59a.5.5,0,0,0,.34-.11.37.37,0,0,0,.12-.29v-.06a.38.38,0,0,0-.12-.28.45.45,0,0,0-.34-.12h-.59Z"
    transform="translate(0)"
  />
  <g id="xgFrdi.tif">
    <path
      d="M84.62,51.92q-7-8.14-13.86-16.41A10.23,10.23,0,0,0,65.49,32a28.83,28.83,0,0,0-4.66-1,14.76,14.76,0,0,0-10.56,2.42c-5,3.5-10.13,6.73-15.23,10A3.65,3.65,0,0,1,33.2,44c-3.5,0-7,0-10.51,0,2.23,3.05,3.53,6.76,4.84,10.49h3.68c7.41-.1,4.73.74,11-3.27l2.12-1.37-.65,1.56q-3.1,7.19-6.2,14.39a8.24,8.24,0,0,0,1.36,9.23,21.35,21.35,0,0,0,2.3,2.26c3.61,3.07,7.26,6.11,10.89,9.17.27.23.52.5.81.77-.26.32-.46.58-.67.83-2.65,3.15-5.35,6.26-8,9.45A6.36,6.36,0,0,0,54,105.76q6.49-7.55,12.87-15.2a6.29,6.29,0,0,0-.8-8.89c-1.12-1-2.26-1.92-3.4-2.88l-6-5.12L69.23,49.92c1.73,2,3.32,4,5,5.88a1.92,1.92,0,0,1,.42,2.26q-2.19,5.82-4.2,11.71a5.2,5.2,0,1,0,9.84,3.36c1.82-5,3.56-10.06,5.43-15A5.61,5.61,0,0,0,84.62,51.92Z"
      transform="translate(0)"
    />
    <path
      d="M17.74,118.45a5.26,5.26,0,0,0-.59-.26,6.36,6.36,0,0,1-2.9-10.41c5.19-6,10.45-11.85,15.65-17.8a5,5,0,0,0,1-1.81C32,84.43,33,80.68,34,76.93c.08-.3.18-.6.34-1.1,2.54,4,6.48,6.27,9.75,9.25a1.36,1.36,0,0,1,.47,1.62c-.67,2.23-1.18,4.52-1.93,6.72a10.37,10.37,0,0,1-1.85,3.49q-8.37,9.68-16.93,19.19c-.94,1-2.43,1.58-3.66,2.35Z"
      transform="translate(0)"
    />
    <path
      d="M83.26,17.39A12.83,12.83,0,1,1,70.72,4.45,12.74,12.74,0,0,1,83.26,17.39Z"
      transform="translate(0)"
    />
  </g>
  <g id="NMSYyG">
    <path
      class="cls-2"
      d="M5.4,54.16c-.26-1.1-.57-2.14-.71-3.2,0-.26.47-.77.8-.86,2-.52,3.92-1,5.91-1.38,3.58-.71,7.19-1.46,10.86-1a18.33,18.33,0,0,1,4.4,1.35,1.77,1.77,0,0,1,.81,1.34,12.21,12.21,0,0,1-1.25,6.34,1.91,1.91,0,0,1-.9.78c-3.1,1.28-6.11.67-9-.57-1.43-.6-2.82-1.3-4.25-1.92A11.25,11.25,0,0,0,5.4,54.16Z"
      transform="translate(0)"
    />
    <path
      class="cls-2"
      d="M27.24,48.73c-3.94-2.32-8.06-1.84-12.15-1.17-3.51.58-7,1.36-10.61,2.06v-3c3.29-.37,5.73-2.31,8.13-4.41A15.4,15.4,0,0,1,19,38.74a2.26,2.26,0,0,1,1.54.18,13.55,13.55,0,0,1,6.75,9.31A2.92,2.92,0,0,1,27.24,48.73Z"
      transform="translate(0)"
    />
    <path
      class="cls-2"
      d="M5.67,54.73a9.18,9.18,0,0,1,5.58.55c2.49,1,4.94,2.09,7.45,3a9.2,9.2,0,0,0,5.64.1c.29-.08.59-.13,1.08-.24a11.55,11.55,0,0,1-5.62,5.09,27.29,27.29,0,0,1-5.39,1.36,2.69,2.69,0,0,1-1.72-.53C9.23,61.86,7.26,58.52,5.67,54.73Z"
      transform="translate(0)"
    />
    <path
      class="cls-2"
      d="M4.56,46.09c.85-7.35,7.14-11,14.26-7.86-3.88,1.05-6.53,3.83-9.56,6A9.2,9.2,0,0,1,4.56,46.09Z"
      transform="translate(0)"
    />
    <path
      class="cls-2"
      d="M12.05,64.45A13.54,13.54,0,0,1,2.39,58.6a1.32,1.32,0,0,1,0-1.22C3.16,56.47,4,55.65,5,54.59,6.67,58.66,8.76,62,12.05,64.45Z"
      transform="translate(0)"
    />
    <path
      class="cls-2"
      d="M4,50.61c.31,1.13.61,2.09.83,3.06a1.07,1.07,0,0,1-.16.91c-1,.9-2,1.74-3.19,2.71C1,56,.59,54.59.2,53.19a.77.77,0,0,1,.29-.65C1.62,51.87,2.77,51.26,4,50.61Z"
      transform="translate(0)"
    />
    <path
      class="cls-2"
      d="M3.92,46.7c0,.95,0,2,0,3a1.17,1.17,0,0,1-.56.74c-1,.57-2.06,1.07-3.22,1.66A12.79,12.79,0,0,1,1,45.75Z"
      transform="translate(0)"
    />
    <path
      class="cls-2"
      d="M7.33,38.89a12.56,12.56,0,0,0-3.42,7.29l-2.64-.93A12.77,12.77,0,0,1,7.33,38.89Z"
      transform="translate(0)"
    />
  </g>
  <g id="nX3aDp.tif">
    <path
      class="cls-1"
      d="M66.24,0a.65.65,0,0,1,.36.33,48.25,48.25,0,0,1,2.5,5,10.3,10.3,0,0,1,.67,2.08,3,3,0,0,1-.08,1.4,3.57,3.57,0,0,1-2.81,2.65,3.68,3.68,0,0,1-4.4-3.76,4.79,4.79,0,0,1,.29-1.23,25.63,25.63,0,0,1,1.64-3.72c.43-.83.89-1.65,1.33-2.48A.54.54,0,0,1,66.06,0Zm-.09,1.31-.06.09c-.5,1-1,2-1.5,2.94a17.67,17.67,0,0,0-1.06,2.54,3.09,3.09,0,0,0-.19,1,2.69,2.69,0,0,0,.79,1.87A2.8,2.8,0,0,0,68.71,9a2.41,2.41,0,0,0,.2-1.5,9.29,9.29,0,0,0-.59-1.78c-.63-1.48-1.36-2.9-2.12-4.3A.28.28,0,0,1,66.15,1.31Z"
      transform="translate(0)"
    />
    <path
      class="cls-3"
      d="M66.15,1.31a.28.28,0,0,0,0,.08c.76,1.4,1.49,2.82,2.12,4.3a9.29,9.29,0,0,1,.59,1.78,2.41,2.41,0,0,1-.2,1.5,2.81,2.81,0,0,1-5.37-1.05,3.09,3.09,0,0,1,.19-1,17.67,17.67,0,0,1,1.06-2.54c.49-1,1-2,1.5-2.94Zm1.94,6.63a.44.44,0,0,0-.34-.51.42.42,0,0,0-.52.42,1.09,1.09,0,0,1-.45.86,1.21,1.21,0,0,1-.66.22.41.41,0,0,0-.4.46.44.44,0,0,0,.46.4A2,2,0,0,0,68.09,7.94Z"
      transform="translate(0)"
    />
    <path
      class="cls-1"
      d="M68.09,7.94a2,2,0,0,1-1.91,1.85.44.44,0,0,1-.46-.4.41.41,0,0,1,.4-.46,1.21,1.21,0,0,0,.66-.22,1.09,1.09,0,0,0,.45-.86.42.42,0,0,1,.52-.42A.44.44,0,0,1,68.09,7.94Z"
      transform="translate(0)"
    />
  </g>
</svg>
