<?xml version="1.0" encoding="utf-8"?>
<svg
  version="1.1"
  xmlns="http://www.w3.org/2000/svg"
  xmlns:xlink="http://www.w3.org/1999/xlink"
  x="0px"
  y="0px"
  width="70"
  height="70"
  viewBox="0 0 54.7 68.6"
  style="enable-background:new 0 0 54.7 68.6;"
  xml:space="preserve"
>
  <g id="ZBtaqf.tif">
    <g>
      <path
        d="M24.5,68.6c-3.2-1-6.5-1.6-9.5-3c-16.1-8-20-29.4-7.9-42.7c0.3-0.3,0.6-0.7,0.9-1.1c-1-1.4-1.9-2.7-2.8-4
			c-0.8-1.1-0.7-2.1,0.5-2.9c1.4-1,2.7-1.9,4.1-2.9c1-0.7,1.9-0.5,2.6,0.5c0.8,1.1,1.5,2.3,2.4,3.3c0.3,0.3,0.9,0.5,1.3,0.4
			c2.3-0.7,4.5-1.5,6.8-2.3c0.5-2.6-0.1-3.5-2.9-3.6c-1.4-0.1-2.2-0.9-2.2-2.2c-0.1-2-0.1-4,0-5.9C17.8,0.8,18.6,0,20,0
			c4.9,0,9.8,0,14.6,0c1.5,0,2.2,0.8,2.3,2.3c0,1.9,0,3.9,0,5.8c0,1.4-0.8,2.3-2.2,2.2C32,10,31.3,11.8,31.8,14
			c2.4,0.7,4.7,1.5,7.2,2.2c0.9-1.2,1.8-2.5,2.7-3.8c0.9-1.2,1.7-1.4,3-0.5s2.6,1.8,3.9,2.7c1.1,0.8,1.3,1.8,0.5,2.9
			c-0.9,1.3-1.8,2.6-2.7,3.8c1.4,1.9,2.9,3.6,4.1,5.5c10.6,16.8,0,39-19.7,41.6c-0.2,0-0.5,0.2-0.7,0.2
			C28.4,68.6,26.5,68.6,24.5,68.6z M48.3,41.5c0-11.7-9.2-21-20.8-21c-11.5,0-21,9.3-21,20.5c0,11.7,9.3,21.2,20.8,21.2
			C38.8,62.1,48.3,52.7,48.3,41.5z"
      />
      <path
        d="M27.4,24c6.8,0.3,11.9,3.2,15.1,9c3.3,6.1,3,12.3-1,18c-3.3,4.8-8.1,7.2-14.1,7.3C27.4,46.9,27.4,35.6,27.4,24z"
      />
    </g>
  </g>
  <text
    transform="matrix(1 0 0 1 13.5997 52.188)"
    fill="#010101"
    fontFamily="BebasKai"
    fontSize="33.1687px"
  >
    1
  </text>
  <g>
    <path fill="#FFFFFF" d="M33.6,52.1h-1.3v-3.8h-1.6v3.8h-1.3v-8.8h1.3V47h1.6v-3.7h1.3V52.1z" />
    <path
      fill="#FFFFFF"
      d="M38,52.1l-1.1-3.7h-0.6v3.7H35v-8.8h1.9c0.7,0,1.3,0.2,1.6,0.6c0.4,0.4,0.6,0.9,0.6,1.6v0.6
		c0,0.9-0.3,1.6-0.9,1.9l1.2,4H38V52.1z M36.3,44.6v2.6h0.5c0.3,0,0.6-0.1,0.7-0.3c0.2-0.2,0.2-0.4,0.2-0.8v-0.5
		c0-0.4-0.1-0.6-0.2-0.8c-0.1-0.2-0.3-0.2-0.6-0.2H36.3z"
    />
  </g>
</svg>
