<svg xmlns="http://www.w3.org/2000/svg" width="70" height="70" viewBox="0 0 70 43.18">
  <defs>
    <style>
      .cls-1 {
        fill: #fff;
      }
    </style>
  </defs>
  <g>
    <path d="M0,0H55.06V28.27H0ZM52.14,3H3V25.3H52.14Z" />
    <path d="M59.6,32.76V10.45H56.72V7.5h5.81V35.71H7.45v-5.8H10.3v2.85Z" />
    <path d="M67.06,40.23V17.9H64.18V15H70V43.18H14.91V37.37h2.86v2.86Z" />
    <path
      d="M26.92,7.71,27,6.35h1.06l.11,1.35a3.42,3.42,0,0,1,3.08,3l-1.9.27-1-1.28-.25.11a26.84,26.84,0,0,0,0,2.84c0,.24.55.49.89.62,2.22.84,3.1,2.57,2.36,4.72a3.09,3.09,0,0,1-2,2.14c-1,.28-1.54.7-1.21,1.88L27,22l-.06-1.48a4,4,0,0,1-3.51-3.66l2-.24,1.3,1.81.28-.13c0-1,0-2,0-3,0-.21-.4-.48-.66-.59a3.56,3.56,0,0,1-2.5-3.36,3.26,3.26,0,0,1,2.59-3.49ZM28.19,18.6c.94-.31,1.42-.83,1.4-1.72s-.5-1.32-1.4-1.53ZM26.94,9.68a1.29,1.29,0,0,0-1.09,1.38,1.29,1.29,0,0,0,1.09,1.36Z"
    />
    <path class="cls-1" d="M28.19,18.6V15.35c.9.21,1.39.67,1.4,1.53S29.13,18.29,28.19,18.6Z" />
    <path
      class="cls-1"
      d="M26.94,9.68v2.74a1.29,1.29,0,0,1-1.09-1.36A1.29,1.29,0,0,1,26.94,9.68Z"
    />
  </g>
</svg>
