<svg xmlns="http://www.w3.org/2000/svg" width="70" height="70" viewBox="0 0 70 66.63">
  <defs>
    <style>
      .cls-1 {
        fill: #010101;
      }
      .cls-2 {
        fill: #fff;
      }
    </style>
  </defs>
  <path
    class="cls-1"
    d="M17.59,33.24a6.13,6.13,0,0,1,.52-1.3l.3,0a7.48,7.48,0,0,0-.32,1.28Zm.82,0a6.17,6.17,0,0,1,.51-1.3l.3,0a7.48,7.48,0,0,0-.32,1.28Z"
  />
  <path
    class="cls-1"
    d="M20.65,34.31h-.16l-1.1-2.48h.79L21,33.65h.09l.79-1.82h.79l-1.1,2.48h-.16v1.34h-.73Z"
  />
  <path
    class="cls-1"
    d="M23,33.31a1.69,1.69,0,0,1,.37-1.15,1.52,1.52,0,0,1,2.08,0,1.64,1.64,0,0,1,.37,1.15v.86a1.62,1.62,0,0,1-.37,1.16,1.55,1.55,0,0,1-2.08,0A1.66,1.66,0,0,1,23,34.17Zm1.41,1.76a.81.81,0,0,0,.33-.06.46.46,0,0,0,.21-.18.67.67,0,0,0,.12-.27,1.9,1.9,0,0,0,0-.35v-.94a1.27,1.27,0,0,0,0-.34.61.61,0,0,0-.12-.27.55.55,0,0,0-.21-.19.88.88,0,0,0-.64,0,.64.64,0,0,0-.21.19,1,1,0,0,0-.12.27,1.27,1.27,0,0,0,0,.34v.94a1.9,1.9,0,0,0,0,.35.67.67,0,0,0,.12.27A.52.52,0,0,0,24,35,.81.81,0,0,0,24.36,35.07Z"
  />
  <path
    class="cls-1"
    d="M29.08,31.83v2.5a1.46,1.46,0,0,1-.34,1,1.34,1.34,0,0,1-1,.37,1.32,1.32,0,0,1-1-.37,1.42,1.42,0,0,1-.35-1v-2.5h.72v2.5a.78.78,0,0,0,.16.53.59.59,0,0,0,.5.19.59.59,0,0,0,.49-.19.78.78,0,0,0,.16-.53v-2.5Z"
  />
  <path
    class="cls-1"
    d="M32.35,35.65h-.72V34.51a.38.38,0,0,0-.07-.22.3.3,0,0,0-.23-.08H30.5v1.44h-.72V31.83h1.46a1.39,1.39,0,0,1,.52.08,1,1,0,0,1,.61.56,1.15,1.15,0,0,1,.08.41V33a.84.84,0,0,1-.13.44.79.79,0,0,1-.39.32v.1a.47.47,0,0,1,.31.14.5.5,0,0,1,.11.32ZM30.5,33.52h.69a.6.6,0,0,0,.4-.12.45.45,0,0,0,.13-.35V33a.44.44,0,0,0-.13-.33.52.52,0,0,0-.4-.14H30.5Z"
  />
  <path
    class="cls-1"
    d="M38.26,35.29h.1V31.83h.72v3.82H37.67l-.45-3.46h-.09v3.46H36.4V31.83h1.41Z"
  />
  <path
    class="cls-1"
    d="M41.74,34.83h-1.3l-.19.82H39.5l.91-3.82h1.36l.91,3.82h-.75Zm-1.15-.69h1l-.44-2H41Z"
  />
  <path
    class="cls-1"
    d="M42.88,31.83h1.27l.22,2.87v.56h.13V34.7l.22-2.87H46v3.82h-.66V33.1l.07-.88h-.13L45,35.65H43.9l-.3-3.43h-.13l.07.88v2.55h-.66Z"
  />
  <path class="cls-1" d="M46.56,31.83H49v.69H47.28v.87h1.63v.69H47.28V35H49v.69H46.56Z" />
  <path
    class="cls-1"
    d="M50.45,31.91a6.06,6.06,0,0,1-.51,1.29l-.3,0A8.86,8.86,0,0,0,50,32Zm.81,0a6.06,6.06,0,0,1-.51,1.29l-.3,0A7.72,7.72,0,0,0,50.77,32Z"
  />
  <g id="cJLl17.tif">
    <path
      d="M56.41,66.63l-11.2-6.69C42,58,38.77,56.1,35.58,54.15a1.25,1.25,0,0,0-1.47,0q-10,5.91-20,11.78l-.89.51c.06-.39.09-.64.15-.89Q16,54.1,18.64,42.65a1.07,1.07,0,0,0-.41-1.19L.84,26.08,0,25.29,2.61,25c7.22-.64,14.44-1.3,21.66-1.92a1.1,1.1,0,0,0,1.06-.77Q30,11.62,34.65.92c.11-.27.24-.54.41-.92.27.61.5,1.12.72,1.64Q40.21,12,44.61,22.37a1.23,1.23,0,0,0,1.2.85c5.46.5,10.92,1.05,16.37,1.57l7.61.73.21.24a3,3,0,0,0-.57.28Q60.52,33.8,51.61,41.56a1.14,1.14,0,0,0-.41,1.32q2.55,11.4,5,22.8C56.31,65.94,56.34,66.2,56.41,66.63Zm-1.69-2.36c-.06-.33-.07-.51-.11-.69-1.55-7-3.08-14-4.66-21a1.27,1.27,0,0,1,.48-1.45q8-6.91,15.91-13.86l.84-.75c-.34-.07-.5-.13-.65-.14l-9-.86c-4.22-.41-8.43-.83-12.65-1.22a1.1,1.1,0,0,1-1-.8q-4.16-9.81-8.36-19.61c-.12-.28-.25-.55-.43-.94-.18.37-.3.61-.41.86q-4,9.16-8,18.35c-.9,2.05-.9,2-3.12,2.21q-8.64.73-17.28,1.52c-1.12.09-2.23.22-3.52.35.33.3.51.49.71.66q8,7.11,16,14.21a1.06,1.06,0,0,1,.41,1.19q-2,8.59-4,17.2c-.35,1.52-.68,3-1,4.69.42-.23.71-.38,1-.55Q25,58.21,34.18,52.81a1.15,1.15,0,0,1,1.38,0q9.09,5.49,18.23,10.93C54.05,63.91,54.33,64.05,54.72,64.27Z"
    />
    <path
      class="cls-2"
      d="M54.72,64.27c-.39-.22-.67-.36-.93-.52q-9.12-5.46-18.23-10.93a1.15,1.15,0,0,0-1.38,0Q25,58.23,15.87,63.59c-.28.17-.57.32-1,.55.37-1.65.7-3.17,1-4.69q2-8.6,4-17.2a1.06,1.06,0,0,0-.41-1.19q-8-7.08-16-14.21c-.2-.17-.38-.36-.71-.66,1.29-.13,2.4-.26,3.52-.35q8.64-.78,17.28-1.52c2.22-.19,2.22-.16,3.12-2.21q4-9.18,8-18.35c.11-.25.23-.49.41-.86.18.39.31.66.43.94q4.19,9.81,8.36,19.61a1.1,1.1,0,0,0,1,.8c4.22.39,8.43.81,12.65,1.22l9,.86c.15,0,.31.07.65.14l-.84.75q-8,6.93-15.91,13.86A1.27,1.27,0,0,0,50,42.53c1.58,7,3.11,14,4.66,21C54.65,63.76,54.66,63.94,54.72,64.27Zm-2.25-3.09c-.06-.38-.08-.64-.13-.89C51,54.15,49.64,48,48.25,41.86a1.11,1.11,0,0,1,.42-1.25q7.11-6.16,14.19-12.36c.2-.18.42-.32.76-.58-.44-.09-.64-.16-.85-.18-6.27-.61-12.53-1.23-18.8-1.8a1.2,1.2,0,0,1-1.19-.84c-2.44-5.78-4.9-11.53-7.36-17.3-.1-.25-.23-.49-.4-.83l-.38.86q-3.75,8.61-7.5,17.23a1.12,1.12,0,0,1-1.05.82c-5.14.43-10.28.89-15.42,1.34l-4.4.42c.37.3.56.45.74.61q7,6.21,14,12.42a1.28,1.28,0,0,1,.49,1.45c-1.45,6.18-2.86,12.37-4.27,18.55a3.39,3.39,0,0,0,0,.59l.78-.45q8-4.73,16.06-9.46a1.35,1.35,0,0,1,1.61,0c3.15,1.93,6.32,3.81,9.49,5.7C47.57,58.26,50,59.69,52.47,61.18Z"
    />
    <path
      d="M52.47,61.18c-2.5-1.49-4.9-2.92-7.29-4.36-3.17-1.89-6.34-3.77-9.49-5.7a1.35,1.35,0,0,0-1.61,0q-8,4.76-16.06,9.46l-.78.45a3.39,3.39,0,0,1,0-.59c1.41-6.18,2.82-12.37,4.27-18.55a1.28,1.28,0,0,0-.49-1.45Q14,34.22,7,28c-.18-.16-.37-.31-.74-.61l4.4-.42c5.14-.45,10.28-.91,15.42-1.34a1.12,1.12,0,0,0,1.05-.82q3.73-8.62,7.5-17.23L35,6.72c.17.34.3.58.4.83,2.46,5.77,4.92,11.52,7.36,17.3a1.2,1.2,0,0,0,1.19.84c6.27.57,12.53,1.19,18.8,1.8.21,0,.41.09.85.18-.34.26-.56.4-.76.58q-7.09,6.18-14.19,12.36a1.11,1.11,0,0,0-.42,1.25C49.64,48,51,54.15,52.34,60.29,52.39,60.54,52.41,60.8,52.47,61.18Zm-1.66-2.31c-.05-.35-.07-.5-.1-.66-1.2-5.43-2.39-10.86-3.61-16.28a1.85,1.85,0,0,1,.68-2.06c4.12-3.54,8.2-7.13,12.29-10.7l.68-.63a1.52,1.52,0,0,0-.32-.12c-5.6-.55-11.19-1.12-16.78-1.62a1.88,1.88,0,0,1-1.82-1.29c-2.11-5-4.26-10-6.4-15-.11-.25-.24-.49-.42-.86l-.42.94c-2.17,5-4.35,9.94-6.49,14.92a1.8,1.8,0,0,1-1.67,1.27c-3.92.32-7.84.68-11.77,1l-5.58.52L9.9,29c4,3.58,8.08,7.18,12.15,10.74a1.87,1.87,0,0,1,.67,2.06c-1.25,5.3-2.46,10.61-3.68,15.93-.06.27-.1.54-.18,1l.94-.52c4.7-2.77,9.41-5.52,14.1-8.31a1.67,1.67,0,0,1,1.94,0c3.23,2,6.47,3.89,9.71,5.83Z"
    />
  </g>
</svg>
