<svg xmlns="http://www.w3.org/2000/svg" width="70" height="70" viewBox="0 0 87.35 69.94">
  <g>
    <path
      d="M0,42.87A54,54,0,0,1,3.65,31.46c3.2-7.18,6.57-14.29,9.86-21.44a1.4,1.4,0,0,1,1.27-1,1.46,1.46,0,0,1,1.43.89c4.59,9.23,9.16,18.48,12.35,28.32a18.56,18.56,0,0,1,1.16,6.85A14.88,14.88,0,0,1,.14,46,1.9,1.9,0,0,0,0,45.6Zm27-.24c-2.81-10.25-7.51-19.59-12-29.19-.24.45-.41.74-.56,1-1.74,3.69-3.53,7.37-5.21,11.09a109,109,0,0,0-5.81,15c-.19.67-.31,1.35-.48,2.07Zm-24,2.83c-.21,5.23,5.73,10.65,11.72,10.72,7.81.09,12.11-6.46,12.21-10.72Z"
      transform="translate(0 0.09)"
    />
    <path
      d="M42.28,12.09c-2.61-.94-3.23-1.56-4.68-4.67H11c-.62,0-1.21,0-1.55-.66a1.35,1.35,0,0,1,1.2-2.06c1,0,2.05,0,3.07,0,7.68,0,15.36,0,23,0A1.06,1.06,0,0,0,38,3.86a6.12,6.12,0,0,1,11.45,0c.24.69.57.81,1.22.8q12.8,0,25.6,0a6,6,0,0,1,.85,0A1.21,1.21,0,0,1,78.23,6,1.27,1.27,0,0,1,77.1,7.37a4.79,4.79,0,0,1-.93,0q-12.77,0-25.52,0a1,1,0,0,0-1.21.82,5.56,5.56,0,0,1-3.63,3.59.93.93,0,0,0-.76,1.07q0,20.78,0,41.56V67.11h18.6c.11,0,.22,0,.34,0a1.37,1.37,0,1,1,0,2.73c-2.16,0-4.32,0-6.48,0H23.7c-.78,0-1.44-.15-1.66-1-.26-1,.36-1.73,1.49-1.74,3.28,0,6.55,0,9.82,0h8.93ZM43.71,9.6a3.36,3.36,0,0,0,3.4-3.41,3.36,3.36,0,0,0-3.41-3.4c-1.79.06-3.44,1.07-3.37,3.93A3.37,3.37,0,0,0,43.71,9.6Z"
      transform="translate(0 0.09)"
    />
    <path
      d="M57.64,44.2a23,23,0,0,1,1.55-7.13A213.06,213.06,0,0,1,69.7,12.77c.49-1,1-2,1.49-3a1.35,1.35,0,0,1,1.32-.9,1.52,1.52,0,0,1,1.38,1c1.73,3.58,3.51,7.13,5.19,10.74A146.4,146.4,0,0,1,86.49,39c1.48,4.74,1.14,9.2-1.67,13.36a14.88,14.88,0,0,1-27.09-6.55C57.67,45.29,57.67,44.75,57.64,44.2Zm27-1.55C81.85,32.35,77.1,23,72.48,13.6c-2.43,5-4.83,9.92-7,15-1.73,4.1-3.13,8.33-4.66,12.51a10,10,0,0,0-.33,1.58ZM60.46,45.44A12.19,12.19,0,0,0,73.29,56.3c6-.53,11.64-6,11.17-10.86Z"
      transform="translate(0 0.09)"
    />
  </g>
</svg>
