<svg xmlns="http://www.w3.org/2000/svg" width="70" height="70" viewBox="0 0 70 69.95">
  <defs>
    <style>
      .cls-1 {
        fill: #010101;
        stroke: #fff;
        stroke-miterlimit: 10;
      }
    </style>
  </defs>
  <g id="_72EloH.tif" data-name="72EloH.tif">
    <path
      class="cls-1"
      d="M36.55,56h-4V51.82A13.92,13.92,0,0,1,25,48.9a11.49,11.49,0,0,1-3.86-7.12l7.14-.65a7.57,7.57,0,0,0,4.3,5.13V36.58l-.38-.12a19.64,19.64,0,0,1-5-1.94,9.1,9.1,0,0,1-4.94-8.11,8.08,8.08,0,0,1,1.89-5.53,11,11,0,0,1,6.43-3.66c.67-.14,1.35-.22,2.05-.33V14.65h4c0,.61,0,1.21,0,1.79,0,.37.08.51.47.55a12.75,12.75,0,0,1,5.62,1.84A9.2,9.2,0,0,1,46.81,25l-6.93.76a5,5,0,0,0-3.29-3.68v.48c0,2.7,0,5.39,0,8.09a.49.49,0,0,0,.46.58,26.9,26.9,0,0,1,6,2,8.14,8.14,0,0,1,4.54,5.17c.17.61.26,1.24.38,1.86v1.61c0,.15-.06.29-.07.43a9.32,9.32,0,0,1-3.11,6,13.73,13.73,0,0,1-7.34,3.24c-.83.13-.83.11-.83,1C36.58,53.7,36.56,54.87,36.55,56Zm.05-9.47A5.78,5.78,0,0,0,39.87,45,4,4,0,0,0,41,40.79a3.61,3.61,0,0,0-1.33-1.88,8,8,0,0,0-3.09-1.32Zm-4-24.5a4.37,4.37,0,0,0-3.5,4c0,1.82,1.49,3.32,3.5,3.94Z"
      transform="translate(0 -0.05)"
    />
  </g>
  <g id="Abk7BN.tif">
    <path
      d="M35,70A35,35,0,1,1,70,35,35,35,0,0,1,35,70ZM56.76,51.76c7.78-8.59,8.85-25.48-2.49-36.54-11-10.7-27.48-9.66-36-2ZM13.19,18.08C7.91,25,5.9,32.89,8.12,41.44c3,11.44,10.53,18.5,22.14,20.82,8,1.6,15.28-.57,21.72-5.42Z"
      transform="translate(0 -0.05)"
    />
  </g>
</svg>
