<svg xmlns="http://www.w3.org/2000/svg" width="70" height="70" viewBox="0 0 69.7 118.87">
  <defs>
    <style>
      .cls-1 {
        fill: #fff;
      }
      .cls-2 {
        fill: #010101;
      }
    </style>
  </defs>
  <g id="_7CldiE.tif" data-name="7CldiE.tif">
    <path
      d="M47.7,40.91c3.6-3.08,7.13-6.09,10.64-9.11a6,6,0,0,1,3.72-1.65c3.07-.1,5,2.39,4,5.28a7.76,7.76,0,0,1-2.1,2.94c-4.19,3.7-8.46,7.29-12.71,10.92a6.36,6.36,0,0,1-8.84,0c-3.35-2.92-6.66-5.88-10-8.82l-1.16-1V112.3a6.14,6.14,0,0,1-4.11,6.17,6.21,6.21,0,0,1-7.72-3.15c-.17-.34-.32-.69-.56-1.23-.2.47-.34.77-.47,1.07a6.25,6.25,0,0,1-6.71,3.61,6,6,0,0,1-5.16-5.94c0-10,0-20,0-30.08,0-3.53,0-7,0-10.58a1.3,1.3,0,0,0-1-1.49,7.16,7.16,0,0,1-4-4.43A27.06,27.06,0,0,1,0,55.85c0-6,.12-12,.42-17.94a24.12,24.12,0,0,1,1.37-6.46A5.77,5.77,0,0,1,7.7,27.34c7.56,0,15.13,0,22.7,0a6,6,0,0,1,4,1.8l12.1,10.72Z"
      transform="translate(0 0)"
    />
    <path d="M31.83,13a13,13,0,1,1-13-13A13,13,0,0,1,31.83,13Z" transform="translate(0 0)" />
  </g>
  <g id="q7BO9d.tif">
    <path
      d="M59,34.46c0-1.48.09-2.95.12-4.43,0-1.3,0-2.59,0-3.89s.11-2.39.19-3.58a1.66,1.66,0,0,1,1.85-1.69q3.2.06,6.39.17a1.69,1.69,0,0,1,1.8,1.87c0,.38,0,.77,0,1.15,0,1.05.07,2.1,0,3.15-.13,4.12-.29,8.24-.44,12.37a1.73,1.73,0,0,1-2,1.86l-6.21-.16a1.73,1.73,0,0,1-1.87-2C58.91,37.69,59,36.07,59,34.46Zm9.69-3.17h0c.06-2.46.11-4.92.21-7.38,0-.54-.15-.69-.68-.7q-3.89-.08-7.77-.21c-.51,0-.71.1-.72.65q-.16,7.38-.4,14.75c0,.54.14.7.67.71,2.59,0,5.19.11,7.78.21.57,0,.71-.18.72-.72C68.55,36.16,68.63,33.72,68.69,31.29Zm-4.08,9a.71.71,0,0,0-.73-.74.72.72,0,0,0,0,1.44A.71.71,0,0,0,64.61,40.28Zm.65-18v-.11l-1.79-.05v.11Z"
      transform="translate(0 0)"
    />
    <path d="M68.9,47.05h-.11V47h0Z" transform="translate(0 0)" />
    <path d="M69.7,47.08h-.1v0h0S69.68,47.06,69.7,47.08Z" transform="translate(0 0)" />
    <path
      class="cls-1"
      d="M68.69,31.29c-.06,2.43-.14,4.87-.18,7.31,0,.54-.15.74-.72.72-2.59-.1-5.19-.17-7.78-.21-.53,0-.68-.17-.67-.71q.22-7.36.4-14.75c0-.55.21-.67.72-.65q3.88.13,7.77.21c.53,0,.69.16.68.7-.1,2.46-.15,4.92-.21,7.38Z"
      transform="translate(0 0)"
    />
    <path
      class="cls-1"
      d="M64.61,40.28a.71.71,0,0,1-.74.7.72.72,0,0,1,0-1.44A.71.71,0,0,1,64.61,40.28Z"
      transform="translate(0 0)"
    />
    <path class="cls-1" d="M65.26,22.24l-1.79,0v-.11l1.79.05Z" transform="translate(0 0)" />
  </g>
  <path
    class="cls-1"
    d="M8,39.74H9.13l.19,2.47v.48h.11v-.48l.19-2.47h1.09V43h-.57v-2.2l.06-.75h-.11l-.25,3H8.91l-.25-3H8.55l0,.75V43H8Z"
    transform="translate(0 0)"
  />
  <path
    class="cls-1"
    d="M12.8,42.33H11.69l-.16.7h-.65l.78-3.29h1.17L13.61,43H13Zm-1-.6h.85l-.38-1.68H12.2Z"
    transform="translate(0 0)"
  />
  <path
    class="cls-1"
    d="M15.56,42.72h.09v-3h.62V43H15.06l-.39-3h-.08v3H14V39.74h1.21Z"
    transform="translate(0 0)"
  />
  <path
    class="cls-1"
    d="M18.55,42.33H17.43l-.16.7h-.64l.78-3.29h1.16L19.36,43h-.65Zm-1-.6h.85L18,40.05H18Z"
    transform="translate(0 0)"
  />
  <path
    class="cls-1"
    d="M20.65,41.37h1.41V43h-.57v-.37h-.08a.58.58,0,0,1-.22.31.76.76,0,0,1-.48.13,1,1,0,0,1-.42-.09,1,1,0,0,1-.34-.25,1.25,1.25,0,0,1-.23-.41,1.72,1.72,0,0,1-.09-.58V41a1.4,1.4,0,0,1,.1-.56A1.09,1.09,0,0,1,20,40a1,1,0,0,1,.39-.25,1.3,1.3,0,0,1,.49-.09,1.36,1.36,0,0,1,.51.09,1.21,1.21,0,0,1,.37.25,1.17,1.17,0,0,1,.24.38,1.45,1.45,0,0,1,.08.47v.06h-.62v-.06a.59.59,0,0,0-1-.42.84.84,0,0,0-.17.6v.69c0,.51.21.76.62.76a.51.51,0,0,0,.57-.54h-.79Z"
    transform="translate(0 0)"
  />
  <path
    class="cls-1"
    d="M22.69,39.74h2.07v.6H23.31v.75H24.7v.59H23.31v.76h1.51V43H22.69Z"
    transform="translate(0 0)"
  />
  <path
    class="cls-1"
    d="M27.72,43H27.1V42a.28.28,0,0,0-.06-.18.21.21,0,0,0-.19-.07h-.71V43h-.62V39.74h1.25a1.52,1.52,0,0,1,.45.07.92.92,0,0,1,.32.2.84.84,0,0,1,.2.29,1,1,0,0,1,.07.35v.11a.73.73,0,0,1-.11.38.64.64,0,0,1-.33.27v.09a.36.36,0,0,1,.35.39ZM26.14,41.2h.59a.5.5,0,0,0,.34-.11.37.37,0,0,0,.12-.29v-.06a.38.38,0,0,0-.12-.28.45.45,0,0,0-.34-.12h-.59Z"
    transform="translate(0 0)"
  />
  <path
    class="cls-2"
    d="M60.43,30.73a.47.47,0,0,1,.44-.52.3.3,0,0,1,.34.33H61c0-.08,0-.15-.13-.15s-.19.15-.19.32.05.19.15.19.13,0,.15-.15h.21a.37.37,0,0,1-.38.33A.31.31,0,0,1,60.43,30.73Z"
    transform="translate(0 0)"
  />
  <path
    class="cls-2"
    d="M61.35,30.23h.3c.19,0,.27.08.27.25a.27.27,0,0,1-.19.27l.13.35h-.21l-.11-.31h0l-.06.31h-.21Zm.23.39c.09,0,.13,0,.13-.12s0-.09-.08-.09h-.07l0,.21Z"
    transform="translate(0 0)"
  />
  <path
    class="cls-2"
    d="M62.3,31.1a.33.33,0,0,1-.34-.37.51.51,0,0,1,.46-.52.34.34,0,0,1,.36.37A.5.5,0,0,1,62.3,31.1Zm.1-.71c-.13,0-.21.15-.23.32s0,.19.15.19.21-.15.21-.32A.15.15,0,0,0,62.4,30.39Z"
    transform="translate(0 0)"
  />
  <path
    class="cls-2"
    d="M62.78,30.81H63c0,.06,0,.11.1.11s.11,0,.11-.09,0-.06-.11-.08-.23-.11-.23-.25a.32.32,0,0,1,.34-.29c.18,0,.29.08.27.27h-.21c0-.07,0-.09-.09-.09s-.08.05-.1.09,0,.06.1.08.26.11.23.25a.31.31,0,0,1-.33.29C62.86,31.1,62.76,31,62.78,30.81Z"
    transform="translate(0 0)"
  />
  <path
    class="cls-2"
    d="M63.47,30.81h.21c0,.06,0,.11.1.11s.11,0,.11-.09,0-.06-.11-.08-.23-.11-.23-.25a.32.32,0,0,1,.34-.29c.18,0,.27.08.25.27h-.21c0-.07,0-.09-.09-.09s-.08.05-.1.09,0,.06.1.08.25.11.23.25a.29.29,0,0,1-.33.29C63.53,31.1,63.45,31,63.47,30.81Z"
    transform="translate(0 0)"
  />
  <path
    class="cls-2"
    d="M64.18,30.73a.54.54,0,0,1,.5-.52c.21,0,.31.1.29.33h-.23c0-.08,0-.15-.1-.15s-.21.15-.23.32,0,.19.12.19a.16.16,0,0,0,.17-.15h.21a.41.41,0,0,1-.42.33C64.26,31.1,64.14,31,64.18,30.73Z"
    transform="translate(0 0)"
  />
  <path
    class="cls-2"
    d="M65.29,31.1a.29.29,0,0,1-.3-.37.59.59,0,0,1,.53-.52.29.29,0,0,1,.31.37A.6.6,0,0,1,65.29,31.1Zm.16-.71c-.12,0-.23.15-.25.32s0,.19.13.19.23-.15.25-.32A.14.14,0,0,0,65.45,30.39Z"
    transform="translate(0 0)"
  />
  <path
    class="cls-2"
    d="M65.87,30.71l.17-.5h.23l-.17.5c0,.12,0,.19.07.19s.12-.07.16-.17l.19-.52h.23l-.19.54a.41.41,0,0,1-.42.33C65.87,31.1,65.77,31,65.87,30.71Z"
    transform="translate(0 0)"
  />
  <path
    class="cls-2"
    d="M66.86,30.23h.29c.19,0,.25.08.23.25a.4.4,0,0,1-.23.27l.06.35H67l0-.31h0l-.11.31h-.2Zm.14.39a.14.14,0,0,0,.15-.12c0-.06,0-.09-.08-.09H67l-.08.21Z"
    transform="translate(0 0)"
  />
  <path
    class="cls-2"
    d="M67.65,30.41h-.19l.09-.18h.62l-.08.18H67.9l-.27.67h-.21Z"
    transform="translate(0 0)"
  />
</svg>
