<svg xmlns="http://www.w3.org/2000/svg" width="70" height="70" viewBox="0 0 70 42.8">
  <g>
    <path
      d="M66.18,42.8H46.38V32.52h2V30.36H21.56V32.5h2.06V42.79H3.84V12.94a1.16,1.16,0,0,1,.41-1A31.15,31.15,0,0,1,15.3,5.71a57.43,57.43,0,0,1,17-3.06A62.28,62.28,0,0,1,52,4.86a35.91,35.91,0,0,1,12.33,5.89c1.83,1.42,1.83,1.42,1.83,3.72V42.8ZM9.35,18.57h4.2V14.2H9.35Zm12,0V14.19H17.22V18.6Zm7.85,0V14.19H25.07V18.6Zm7.85,0V14.19H32.91V18.6Zm3.66,0H45V14.2h-4.2Zm7.86-4.4v4.41h4.18V14.17Zm12,4.42v-4.4H56.47v4.4Z"
    />
    <path
      d="M70,12.94c-.84,0-1.56,0-2.27,0a.58.58,0,0,1-.35-.19C64.1,9.13,59.91,7,55.41,5.31A56.35,56.35,0,0,0,40.05,2.17,65.42,65.42,0,0,0,21.22,3.41,39.79,39.79,0,0,0,6,9.76c-1.16.85-2.16,1.92-3.25,2.87a1.25,1.25,0,0,1-.66.3c-.64,0-1.28,0-2.07,0,.2-.28.34-.48.49-.67A25.35,25.35,0,0,1,9.13,5.54a50.61,50.61,0,0,1,15-4.68,68.3,68.3,0,0,1,17-.58,54.19,54.19,0,0,1,19,4.92A26.17,26.17,0,0,1,69.3,12C69.52,12.27,69.72,12.56,70,12.94Z"
    />
    <path d="M24.18,32.53H34.85v9.95H24.18Z" />
    <path d="M45.83,42.5H35.4v-10H45.83Z" />
    <path d="M22,32V30.86h25.9V32Z" />
  </g>
</svg>
