<svg
  xmlns="http://www.w3.org/2000/svg"
  xmlns:xlink="http://www.w3.org/1999/xlink"
  x="0px"
  y="0px"
  width="70"
  height="70"
  viewBox="0 0 48.2 64.7"
  style="enable-background: new 0 0 48.2 64.7;"
  xml:space="preserve"
>
  <style type="text/css">
    .st0 {
      fill: #aeaed7;
    }
    .st1 {
      fill: #ffffff;
    }
  </style>
  <g>
    <g>
      <g>
        <path
          d="M30.1,57.9c-0.6-2.4-0.2-5,1.1-7c1.4-2.2,3.7-4.1,6.3-4.5c1.3-0.2,2.6,0.1,3.9,0.3c0.6,0.1,1.3,0.3,1.8,0.6
				c0.6,0.3,1,0.7,1.6,1c0.1,0.1,0.3,0.2,0.4,0.3c0-7.4,0-14.8,0-22.2c0-0.7-0.2-1.2-0.7-1.7c-0.5-0.6-1-1.3-1.5-2
				c-2.5-3.7-3.4-7.7-3.4-12.1c0-2.5,0-5.1,0-7.6c0-1-0.4-1.5-1.4-1.7c-2.2-0.4-4.4-0.7-6.5-1.2c-0.9-0.2-1.6-0.1-2.3,0.5
				c-2,1.4-4.3,2.3-6.8,2.3c-2.7,0-5-1-7.2-2.5C15,0.1,14.4,0,14,0c-2.3,0.4-4.7,0.9-7.1,1.4C6,1.6,5.6,2.1,5.6,3c0,0.6,0,1.2,0,1.9
				c-0.1,3.2,0,6.5-0.3,9.7c-0.4,3.8-1.9,7.2-4.5,10.1C0.2,25.3-0.1,26,0,26.9c0,11.2,0,22.5,0,33.7c0,1.4,0.5,1.8,1.9,1.8
				c6.9,0,13.9,0,20.8,0c3.4,0,6.7,0,10.1,0v-0.1C31.6,60.9,30.5,59.6,30.1,57.9z M29.4,6.8c-0.5,1.9-1.4,3.5-3,4.7
				c-2.7,2-6,1.7-8.4-0.7c-1.7-1.8-2.5-4-2.5-6.5c0-0.1,0-0.3,0.1-0.5c4.7,2.7,9.3,2.7,13.9,0c0.1,0,0.1,0.1,0.2,0.1
				C29.6,4.9,29.6,5.9,29.4,6.8z"
        />
        <path
          d="M38.6,50.8c-0.3,0.2-0.6,0.4-0.9,0.6c0.3-0.2,0.5-0.3,0.8-0.5c0.1,0,0.2-0.1,0.3-0.1C38.8,50.8,38.7,50.8,38.6,50.8z"
        />
      </g>
    </g>
    <g>
      <g>
        <path
          class="st0"
          d="M33.4,57.8c-0.2-0.7-0.4-1.4-0.5-2.2c0-0.2,0.3-0.5,0.5-0.6c1.3-0.3,2.6-0.7,4-0.9c2.4-0.5,4.9-1,7.3-0.7
				c1,0.1,2,0.5,3,0.9c0.3,0.1,0.5,0.6,0.5,0.9c0.1,1.5-0.2,2.9-0.8,4.3c-0.1,0.2-0.4,0.4-0.6,0.5c-2.1,0.9-4.1,0.5-6.1-0.4
				c-1-0.4-1.9-0.9-2.9-1.3C36.5,57.7,35.1,57.5,33.4,57.8z"
        />
        <path
          class="st0"
          d="M48.2,54.1c-2.7-1.6-5.4-1.2-8.2-0.8c-2.4,0.4-4.7,0.9-7.2,1.4c0-0.6,0-1.3,0-2c2.2-0.3,3.9-1.6,5.5-3
				c1.3-1.1,2.7-2,4.3-2.4c0.3-0.1,0.8,0,1,0.1c2.4,1.4,4,3.5,4.6,6.3C48.2,53.8,48.2,53.9,48.2,54.1z"
        />
        <path
          class="st0"
          d="M33.6,58.1c1.4-0.3,2.6-0.1,3.8,0.4c1.7,0.7,3.3,1.4,5,2c1.2,0.5,2.5,0.4,3.8,0.1c0.2-0.1,0.4-0.1,0.7-0.2
				c-0.9,1.6-2.2,2.8-3.8,3.4c-1.1,0.5-2.4,0.7-3.6,0.9c-0.4,0.1-0.8-0.1-1.2-0.4C36,63,34.7,60.7,33.6,58.1z"
        />
        <path
          class="st0"
          d="M32.9,52.3c0.6-5,4.8-7.4,9.6-5.3c-2.6,0.7-4.4,2.6-6.5,4.1C35.1,51.7,34.1,52.2,32.9,52.3z"
        />
        <path
          class="st0"
          d="M37.9,64.7c-2.8-0.3-4.9-1.7-6.5-4c-0.1-0.2-0.1-0.6,0-0.8c0.5-0.6,1.1-1.2,1.8-1.9
				C34.3,60.8,35.7,63,37.9,64.7z"
        />
        <path
          class="st0"
          d="M32.5,55.4c0.2,0.8,0.4,1.4,0.6,2.1c0,0.2,0,0.5-0.1,0.6c-0.7,0.6-1.4,1.2-2.2,1.8c-0.3-0.9-0.6-1.8-0.8-2.8
				c0-0.1,0.1-0.4,0.2-0.4C30.9,56.2,31.7,55.8,32.5,55.4z"
        />
        <path
          class="st0"
          d="M32.4,52.7c0,0.6,0,1.3,0,2c0,0.2-0.2,0.4-0.4,0.5c-0.7,0.4-1.4,0.7-2.2,1.1c-0.2-1.5,0.1-2.9,0.6-4.3
				C31.1,52.3,31.7,52.5,32.4,52.7z"
        />
        <path
          class="st0"
          d="M34.7,47.4c-1.3,1.3-2,3-2.3,4.9c-0.6-0.2-1.2-0.4-1.8-0.6C31.5,49.8,32.9,48.4,34.7,47.4z"
        />
      </g>
    </g>
    <g>
      <path
        class="st1"
        d="M4.3,29.8c0-1.4,0.8-2.5,2.1-2.5c1,0,1.6,0.5,1.6,1.6H6.9c0-0.4-0.2-0.7-0.6-0.7c-0.6,0-0.9,0.7-0.9,1.5
			c0,0.5,0.2,0.9,0.7,0.9c0.4,0,0.6-0.2,0.7-0.7h1C7.6,31,6.9,31.5,6,31.5C5,31.6,4.3,31,4.3,29.8z"
      />
      <path
        class="st1"
        d="M8.7,27.4H10c0.9,0,1.3,0.4,1.3,1.2c0,0.7-0.4,1.1-0.9,1.3l0.6,1.7h-1l-0.5-1.5H9.3L9,31.6H8L8.7,27.4z
			 M9.7,29.3c0.4,0,0.6-0.2,0.6-0.6c0-0.3-0.1-0.4-0.4-0.4H9.6l-0.2,1C9.4,29.3,9.7,29.3,9.7,29.3z"
      />
      <path
        class="st1"
        d="M13.1,31.6c-0.9,0-1.7-0.7-1.6-1.8c0.1-1.4,1-2.5,2.2-2.5c1,0,1.7,0.7,1.7,1.8C15.3,30.6,14.3,31.6,13.1,31.6
			z M13.6,28.2c-0.6,0-1,0.7-1.1,1.5c0,0.6,0.2,0.9,0.7,0.9c0.6,0,1-0.7,1-1.5C14.3,28.7,14.1,28.2,13.6,28.2z"
      />
      <path
        class="st1"
        d="M15.4,30.2h1c0,0.3,0.1,0.5,0.5,0.5c0.3,0,0.5-0.1,0.5-0.4c0-0.2-0.1-0.3-0.5-0.4c-0.9-0.2-1.1-0.5-1.1-1.2
			c0.1-0.8,0.7-1.4,1.6-1.4s1.4,0.4,1.3,1.3h-1c0-0.3-0.1-0.4-0.4-0.4s-0.4,0.2-0.5,0.4c0,0.2,0.1,0.3,0.5,0.4
			c0.8,0.2,1.2,0.5,1.1,1.2c-0.1,0.8-0.7,1.4-1.6,1.4C15.7,31.6,15.3,31.1,15.4,30.2z"
      />
      <path
        class="st1"
        d="M18.6,30.2h1c0,0.3,0.1,0.5,0.5,0.5c0.3,0,0.5-0.1,0.5-0.4c0-0.2-0.1-0.3-0.5-0.4c-0.9-0.2-1.1-0.5-1.1-1.2
			c0.1-0.8,0.7-1.4,1.6-1.4s1.3,0.4,1.2,1.3h-1c0-0.3-0.1-0.4-0.4-0.4s-0.4,0.2-0.5,0.4c0,0.2,0.1,0.3,0.5,0.4
			c0.8,0.2,1.2,0.5,1.1,1.2c0,0.8-0.6,1.4-1.6,1.4C18.9,31.6,18.5,31.1,18.6,30.2z"
      />
      <path
        class="st1"
        d="M21.9,29.8c0.2-1.4,1.1-2.5,2.4-2.5c1,0,1.5,0.5,1.4,1.6h-1.1c0-0.4-0.1-0.7-0.5-0.7c-0.6,0-1,0.7-1.1,1.5
			c-0.1,0.5,0.1,0.9,0.6,0.9c0.4,0,0.7-0.2,0.8-0.7h1c-0.3,1.1-1.1,1.6-2,1.6C22.3,31.6,21.8,31,21.9,29.8z"
      />
      <path
        class="st1"
        d="M27.2,31.6c-0.9,0-1.6-0.7-1.4-1.8c0.2-1.4,1.3-2.5,2.5-2.5c1,0,1.7,0.7,1.5,1.8
			C29.3,30.6,28.3,31.6,27.2,31.6z M28,28.2c-0.6,0-1.1,0.7-1.2,1.5c-0.1,0.6,0.1,0.9,0.6,0.9c0.6,0,1.1-0.7,1.2-1.5
			C28.6,28.7,28.4,28.2,28,28.2z"
      />
      <path
        class="st1"
        d="M29.9,29.7l0.8-2.4h1.1L31,29.7c-0.2,0.6-0.1,0.9,0.3,0.9c0.4,0,0.6-0.3,0.8-0.8l0.9-2.5h1.1l-0.9,2.6
			c-0.4,1.1-1,1.6-2,1.6C29.9,31.6,29.4,31,29.9,29.7z"
      />
      <path
        class="st1"
        d="M34.5,27.4h1.4c0.9,0,1.2,0.4,1.1,1.2c-0.2,0.7-0.6,1.1-1.1,1.3l0.3,1.7h-1L35,30.1h-0.2l-0.5,1.5h-1
			L34.5,27.4z M35.2,29.3c0.4,0,0.6-0.2,0.7-0.6c0.1-0.3-0.1-0.4-0.4-0.4h-0.3l-0.4,1H35.2z"
      />
      <path
        class="st1"
        d="M38.3,28.3h-0.9l0.4-0.9h3l-0.4,0.9h-0.9l-1.3,3.2h-1L38.3,28.3z"
      />
    </g>
  </g>
</svg>
