<svg xmlns="http://www.w3.org/2000/svg" width="70" height="70" viewBox="0 0 69.72 131.49">
  <defs>
    <style>
      .cls-1 {
        fill: #fff;
      }
      .cls-2 {
        fill: none;
        stroke: #fff;
        stroke-miterlimit: 10;
      }
      .cls-3 {
        fill: #010101;
      }
    </style>
  </defs>
  <path
    d="M48.44,131.49H45.88c-3.87-1.15-5.68-3.77-5.74-7.8,0-2.27-.32-4.53-.49-6.8q-1.24-16.35-2.5-32.7c-.25-3.2-.51-6.39-.76-9.58H33.3c-.28,3.81-.55,7.52-.84,11.24q-1.09,14.43-2.21,28.86c-.27,3.5-.46,7-.82,10.51s-2.47,5.31-5.59,6.27H21.27c-.06-.06-.1-.15-.18-.17-4-1.42-5.49-3.66-5.22-7.87.31-4.83.7-9.66,1.07-14.49q.84-10.89,1.69-21.78c.42-5.52.84-11,1.22-16.54a1.83,1.83,0,0,0-.47-1.19c-.6-.71-1.35-1.3-1.93-2-3.37-4.21-6.73-8.42-10-12.68C4.9,51.53,2.47,48.24,0,45V42.92C.63,42,1.08,40.87,1.92,40.3c5-3.41,10-6.67,15.07-10a14.5,14.5,0,0,1,9.59-2.48,1.88,1.88,0,0,1,1.61.95c1.81,2.69,3.73,5.32,5.57,8a3.09,3.09,0,0,1,.42,1.51c.06,1.79,0,3.68,0,5.52,1.22.61,1.22,0,1.27-1,.08-1.55,0-3.09,0-4.64a2.45,2.45,0,0,1,.4-1.28q2.87-4.17,5.83-8.27a1.86,1.86,0,0,1,1.18-.71,14.26,14.26,0,0,1,9.52,2.23q7.11,4.69,14.28,9.31a7,7,0,0,1,3,3.49v1.8A18.09,18.09,0,0,1,68.4,47Q60.14,57.54,51.82,68a4.45,4.45,0,0,1-1.16,1.17,1.6,1.6,0,0,0-.8,1.81c.33,3.93.6,7.87.9,11.8q.84,10.91,1.67,21.81c.5,6.54,1,13.08,1.45,19.62a6.72,6.72,0,0,1-4.64,6.94C49,131.24,48.71,131.37,48.44,131.49ZM10.6,44.82l9,11.28V39C16.51,41,13.63,42.83,10.6,44.82Zm47.9,0-9-5.85V56.09Z"
  />
  <path d="M36.52,0c.48.15,1,.31,1.45.44A12.45,12.45,0,1,1,32.09.27,7.32,7.32,0,0,0,32.92,0Z" />
  <path
    d="M40.15,28.13l0,0a.17.17,0,0,1-.14.06,10,10,0,0,1-.84.75,2.73,2.73,0,0,1-1,.52,3.19,3.19,0,0,1-.82.29c-.34.09-.67.2-1,.26a8.34,8.34,0,0,1-2.82,0,7.48,7.48,0,0,1-2.08-.78L31.06,29l0,0a6.25,6.25,0,0,1-1.22-.89H28.71l5.74,8.18H35c1.85-2.64,3.69-5.28,5.71-8.18Z"
  />
  <g id="GaJiww">
    <path
      class="cls-1"
      d="M34.25,48.39c.3,0,.38-.06.38-.2s-.07-.16-.38-.2V45.52a.34.34,0,0,1,.38-.38h.3a.33.33,0,0,1,.36.37c0,.45,0,.91,0,1.37a1.54,1.54,0,0,0,.17.7.45.45,0,0,0,.46.3,1.57,1.57,0,0,1,.41,3.1l-.23,0c.14.31.11.53-.11.68a.49.49,0,0,1-.61-.08.47.47,0,0,1,0-.65l-.08,0a1.58,1.58,0,0,1-1.09-1.53v-1Zm1.48,2.1a1,1,0,1,0-1.06-1A1,1,0,0,0,35.73,50.49Zm-.21.53c-.14,0-.31.12-.31.28a.32.32,0,0,0,.63.05A.29.29,0,0,0,35.52,51Z"
    />
    <path
      d="M35.73,50.49a1,1,0,1,1,1.06-1A1,1,0,0,1,35.73,50.49Zm-.92-1a.92.92,0,0,0,1.84,0,.92.92,0,0,0-1.84,0Z"
    />
    <path d="M35.52,51a.29.29,0,0,1,.32.33.32.32,0,0,1-.63-.05C35.21,51.14,35.38,51,35.52,51Z" />
    <path class="cls-1" d="M34.81,49.46a.92.92,0,0,1,1.84,0,.92.92,0,0,1-1.84,0Z" />
  </g>
  <path
    class="cls-1"
    d="M12.28,33.54a82,82,0,0,0,5,7.6c.28.38.93,0,.64-.38a79.78,79.78,0,0,1-5-7.59.37.37,0,0,0-.65.37Z"
  />
  <path
    class="cls-1"
    d="M52.56,40.41l4-7.46c.23-.43-.42-.81-.65-.38l-4,7.46c-.23.43.42.81.64.38Z"
  />
  <line class="cls-2" x1="20.18" y1="63.91" x2="50.15" y2="63.91" />
  <rect class="cls-3" x="21.4" y="39.75" width="27.52" height="4.28" />
  <path
    class="cls-1"
    d="M22.43,42.22a1.62,1.62,0,0,1,.38-1.14,1.31,1.31,0,0,1,1-.41,1.33,1.33,0,0,1,1,.41,1.61,1.61,0,0,1,.37,1.14v.85a1.61,1.61,0,0,1-.37,1.15,1.33,1.33,0,0,1-1,.4,1.3,1.3,0,0,1-1-.4,1.61,1.61,0,0,1-.38-1.15ZM23.83,44a.67.67,0,0,0,.33-.07.51.51,0,0,0,.21-.17.81.81,0,0,0,.11-.27,1.29,1.29,0,0,0,0-.35v-.93a1.86,1.86,0,0,0,0-.34,1.11,1.11,0,0,0-.12-.27.46.46,0,0,0-.21-.18.63.63,0,0,0-.32-.07.62.62,0,0,0-.31.07.46.46,0,0,0-.21.18.66.66,0,0,0-.12.27,1.27,1.27,0,0,0,0,.34v.93a1.9,1.9,0,0,0,0,.35.66.66,0,0,0,.12.27.51.51,0,0,0,.21.17A.63.63,0,0,0,23.83,44Z"
  />
  <path class="cls-1" d="M26,40.75H28.4v.68H26.69v.87h1.68V43H26.69v1.56H26Z" />
  <path class="cls-1" d="M29.29,40.75h2.43v.68H30v.87h1.68V43H30v1.56h-.71Z" />
  <path class="cls-1" d="M32.52,40.75h2.54v.68h-.91v2.43h.91v.68H32.52v-.68h.91V41.43h-.91Z" />
  <path
    class="cls-1"
    d="M37.12,44a.71.71,0,0,0,.34-.07.53.53,0,0,0,.2-.16.69.69,0,0,0,.1-.25,1.27,1.27,0,0,0,0-.28v-.1h.72v.1a1.41,1.41,0,0,1-.36,1,1.35,1.35,0,0,1-1,.37,1.33,1.33,0,0,1-1-.4,1.57,1.57,0,0,1-.38-1.15v-.85a1.89,1.89,0,0,1,.1-.65,1.13,1.13,0,0,1,.28-.49,1.23,1.23,0,0,1,.44-.3,1.59,1.59,0,0,1,.59-.11,1.55,1.55,0,0,1,.59.1,1.11,1.11,0,0,1,.44.28,1.16,1.16,0,0,1,.27.44,1.83,1.83,0,0,1,.09.59v.1h-.72v-.1a1.24,1.24,0,0,0,0-.27.66.66,0,0,0-.11-.24.46.46,0,0,0-.21-.18.61.61,0,0,0-.32-.07.62.62,0,0,0-.31.07.65.65,0,0,0-.22.18.84.84,0,0,0-.13.27,1.75,1.75,0,0,0,0,.33v.95a1.76,1.76,0,0,0,0,.34,1.11,1.11,0,0,0,.12.27.58.58,0,0,0,.21.17A.67.67,0,0,0,37.12,44Z"
  />
  <path class="cls-1" d="M39.16,40.75h2.53v.68h-.91v2.43h.91v.68H39.16v-.68h.91V41.43h-.91Z" />
  <path
    class="cls-1"
    d="M44.39,43.73H43.1l-.19.81h-.75l.91-3.79h1.35l.9,3.79h-.75Zm-1.14-.68h1l-.44-1.95h-.1Z"
  />
  <path class="cls-1" d="M45.85,40.75h.71v3.11h1.73v.68H45.85Z" />
</svg>
