<svg xmlns="http://www.w3.org/2000/svg" width="70" height="70" viewBox="0 0 69.84 67.99">
  <defs>
    <style>
      .cls-1 {
        fill: #aeaed7;
      }
    </style>
  </defs>
  <g id="kXcts1">
    <path
      d="M.78,37.19c-.19-1-.43-2-.56-3a29.73,29.73,0,0,1,.15-8.32,30.11,30.11,0,0,1,3.07-9.33A30.53,30.53,0,0,1,49,6.23a29,29,0,0,1,7.41,8.15c.75,1.24,1.39,2.55,2,3.86a1.14,1.14,0,0,1-.61,1.64,1.18,1.18,0,0,1-1.54-.72,28.72,28.72,0,0,0-4.67-7.25c-.11-.13-.21-.27-.37-.45l-2.66,2.79-1.72-1.69,2.77-2.67a27.48,27.48,0,0,0-6.53-4.52,27.91,27.91,0,0,0-11.42-3V6.23H29.39V2.38A28.3,28.3,0,0,0,11.48,9.81l2.73,2.67-1.72,1.68L9.84,11.45A28.28,28.28,0,0,0,2.39,29.36H6.23v2.35H2.38c.06.76.12,1.45.19,2.15,0,.47.09.94.14,1.41Z"
    />
    <path
      d="M.78,37.19l1.93-1.92c.29,1.14.54,2.29.87,3.42a25.64,25.64,0,0,0,3.26,7c.9,1.33,1.9,2.6,2.87,3.92l2.75-2.84,1.68,1.82-2.71,2.61A28.28,28.28,0,0,0,29.36,58.7V54.83h2.36v3.86c.63,0,1.21-.07,1.79-.13a27.36,27.36,0,0,0,8.09-2.1,2.13,2.13,0,0,1,.83-.18,1.12,1.12,0,0,1,1,.88,1.11,1.11,0,0,1-.66,1.3,30.7,30.7,0,0,1-3,1.21,30.59,30.59,0,0,1-22.33-1.55A30.64,30.64,0,0,1,.81,37.57,2.43,2.43,0,0,1,.78,37.19Z"
    />
    <path
      d="M30.52,33a2.44,2.44,0,0,1-2.43-2.7,1.06,1.06,0,0,0-.35-.94Q24.29,26,20.88,22.54a1.19,1.19,0,1,1,1.67-1.66l7,7a.62.62,0,0,0,.68.23.79.79,0,0,1,.43,0c.56.17.89-.15,1.25-.51q4.38-4.41,8.8-8.81c.55-.55,1.09-1.11,1.65-1.65A1.18,1.18,0,1,1,44,18.8l-7.68,7.68c-1,1-2,2-3.06,3.05a.7.7,0,0,0-.22.68A2.46,2.46,0,0,1,30.52,33Z"
    />
  </g>
  <g id="NMSYyG">
    <path
      class="cls-1"
      d="M42.34,51.45c-.08-.36-.19-.7-.23-1,0-.09.15-.25.26-.28q1-.26,1.92-.45a11.09,11.09,0,0,1,3.53-.33,6.29,6.29,0,0,1,1.44.44.58.58,0,0,1,.26.44,4,4,0,0,1-.41,2.06.51.51,0,0,1-.29.25,3.67,3.67,0,0,1-2.94-.18c-.47-.2-.92-.42-1.39-.63A3.64,3.64,0,0,0,42.34,51.45Z"
    />
    <path
      class="cls-1"
      d="M49.45,49.68a5.62,5.62,0,0,0-4-.38c-1.14.19-2.28.44-3.45.67V49a4.86,4.86,0,0,0,2.65-1.44,5.07,5.07,0,0,1,2.07-1.14.71.71,0,0,1,.5.06,4.45,4.45,0,0,1,2.2,3S49.45,49.59,49.45,49.68Z"
    />
    <path
      class="cls-1"
      d="M42.43,51.63a3.08,3.08,0,0,1,1.81.18c.81.32,1.61.68,2.43,1a3,3,0,0,0,1.83,0l.35-.08A3.65,3.65,0,0,1,47,54.4a8.65,8.65,0,0,1-1.75.45.92.92,0,0,1-.56-.17A6.24,6.24,0,0,1,42.43,51.63Z"
    />
    <path
      class="cls-1"
      d="M42.07,48.82c.27-2.39,2.32-3.56,4.64-2.55a9.55,9.55,0,0,0-3.11,2A3,3,0,0,1,42.07,48.82Z"
    />
    <path
      class="cls-1"
      d="M44.5,54.8a4.43,4.43,0,0,1-3.14-1.91.41.41,0,0,1,0-.39c.24-.3.52-.57.85-.91A7.16,7.16,0,0,0,44.5,54.8Z"
    />
    <path
      class="cls-1"
      d="M41.87,50.29c.1.37.2.68.27,1a.38.38,0,0,1,0,.3c-.32.29-.66.56-1,.88-.13-.43-.28-.88-.4-1.34a.24.24,0,0,1,.09-.21C41.11,50.7,41.49,50.5,41.87,50.29Z"
    />
    <path
      class="cls-1"
      d="M41.86,49c0,.31,0,.64,0,1a.34.34,0,0,1-.18.24c-.33.19-.67.35-1.05.55a4.16,4.16,0,0,1,.29-2.06Z"
    />
    <path class="cls-1" d="M43,46.48a4,4,0,0,0-1.11,2.37l-.86-.3A4.14,4.14,0,0,1,43,46.48Z" />
  </g>
  <g id="FMahFv">
    <path
      d="M59.52,48.9c-.31.25-.74.43-.91.75A56.76,56.76,0,0,0,56,54.94a38.79,38.79,0,0,0-1.28,4.59c-1-.76-1.81-1.33-2.57-2a1.83,1.83,0,0,1-.36-2.48c1.14-2.2,2.27-4.4,3.37-6.62a3.8,3.8,0,0,0,.46-1.55c0-2.8,0-5.6,0-8.4a4.92,4.92,0,0,0-.09-.64c-.17.06-.29.07-.32.13-2,3.17-5.23,4.76-8.41,6.42-1,.52-1.93.58-2.5-.46s-.06-1.84.94-2.35l.13-.07a19.49,19.49,0,0,0,8.51-6.91,2.76,2.76,0,0,1,2.47-1.19c2.11,0,4.22-.08,6.33-.2A2.4,2.4,0,0,1,65,34.53c2.63,3.89,3.6,8.39,4.75,12.82.25,1,.11,1.89-1,2.18s-1.78-.38-2.06-1.46C66,45.8,65.44,43.55,64.8,41.3a4.51,4.51,0,0,0-1-1.89c.09,2,.17,4,.3,6a11.38,11.38,0,0,1-1.37,6.35c-2.54,4.6-4.17,9.57-5.89,14.51a3,3,0,0,1-1.55,1.68c-1.31.45-2.46-1-2-2.42,1.26-3.63,2.58-7.25,4-10.83C58,52.79,59,51,59.82,49.21Z"
    />
    <path d="M59.49,32.15a3.87,3.87,0,0,1-.11-7.73,3.87,3.87,0,1,1,.11,7.73Z" />
    <path d="M60.44,59.21c.14.64.53,1.35.36,1.9s-.89,1-1.36,1.52L59,62.31l.94-3Z" />
  </g>
</svg>
