<svg
  xmlns="http://www.w3.org/2000/svg"
  xmlns:xlink="http://www.w3.org/1999/xlink"
  x="0px"
  y="0px"
  width="70"
  height="70"
  viewBox="0 0 107.4 120.63"
  style="enable-background: new 0 0 107.4 120.63;"
  xml:space="preserve"
>
  <style type="text/css">
    .st0 {
      fill: #aeaed7;
    }
    .st1 {
      fill: #ffffff;
    }
  </style>
  <path
    d="M101.63,46.17c-10.54-.41-19.52-4.08-26.94-11.6a19,19,0,0,0-4.1-3.16,9.05,9.05,0,0,0-4.36-1.5l-.54,0a6,6,0,0,1-2.43,1.85,17.89,17.89,0,0,1-5.34,1.28,4.64,4.64,0,0,1-2.47.31A12.25,12.25,0,0,1,53,32.61a4.25,4.25,0,0,0-.6-.12l.29,0a4.56,4.56,0,0,1-2-.69,3.82,3.82,0,0,1-2.07-1.25c-3.37.19-6.73.44-10.07.81-5.89.64-11.3.54-16.74-2-4.41-2.08-9.14-3.49-13.7-5.28C5,22.81,2.17,23,.51,26.42c-1.41,2.93.15,5.49,4.23,7.13,2.8,1.13,5.71,2,8.47,3.22,9.18,4.07,18.41,7.52,28.66,4.2A8.4,8.4,0,0,1,44,41c.27,3.14.56,5.85.73,8.56.47,7.77,1.05,15.54,1.22,23.32a15.43,15.43,0,0,1-1.74,7.26c-3.4,6.35-7,12.58-10.93,18.64a13.13,13.13,0,0,1-5.33,4.47c-4.82,2.25-9.87,4-14.79,6C9,111,7.49,113.91,8.88,117.3c1.29,3.11,4.41,4.17,8.43,2.64,6.46-2.46,13-4.86,19.26-7.66a11.85,11.85,0,0,0,4.87-4.53c5.12-8.34,9.93-16.88,15-25.26.73-1.22,2.26-2,3.43-2.92l1.1.9c-.42,4.52-.84,9-1.24,13.4-3.24,1.37-7.08-2.29-9.26,2-1.46,2.9-3,5.74-4.72,8.86,6.47.59,12.35,1.2,18.24,1.64,3.89.29,6.54-1.7,6.79-5.63.85-13.2,1.59-26.42,2-39.65.17-5-.55-10-1-16.52C78.52,52.2,86.09,55,94.69,55.35a33.85,33.85,0,0,1,5.57.73c3.53.76,6-.35,7-3.91C108.05,49.1,105.73,46.32,101.63,46.17Z"
  />
  <path
    d="M58.47,27.87A12.29,12.29,0,0,1,58.59,3.3,12.48,12.48,0,0,1,70.93,15.67,12.39,12.39,0,0,1,58.47,27.87Z"
  />
  <path d="M28.43,101.42c-3.35-6.4-.8-9.51,6.39-9Z" />
  <g>
    <path
      class="st0"
      d="M6.81,12.13A21.81,21.81,0,0,1,6.3,9.85c0-.18.33-.55.57-.61,1.39-.37,2.79-.7,4.2-1a24.37,24.37,0,0,1,7.74-.72,13.47,13.47,0,0,1,3.13,1,1.28,1.28,0,0,1,.58,1,8.69,8.69,0,0,1-.9,4.51,1.28,1.28,0,0,1-.63.56,8.1,8.1,0,0,1-6.45-.41c-1-.43-2-.92-3-1.36A7.91,7.91,0,0,0,6.81,12.13Z"
    />
    <path
      class="st0"
      d="M22.23,8.27C19.43,6.62,16.5,7,13.58,7.43c-2.5.41-5,1-7.55,1.47V6.79c2.34-.26,4.08-1.64,5.79-3.14a11,11,0,0,1,4.54-2.5,1.63,1.63,0,0,1,1.09.13,9.62,9.62,0,0,1,4.81,6.63A2,2,0,0,1,22.23,8.27Z"
    />
    <path
      class="st0"
      d="M7,12.54a6.44,6.44,0,0,1,4,.39c1.77.7,3.52,1.48,5.3,2.15a6.57,6.57,0,0,0,4,.07c.2-.06.42-.1.76-.18a8.16,8.16,0,0,1-4,3.63,18.86,18.86,0,0,1-3.83,1A1.9,1.9,0,0,1,12,19.19C9.53,17.61,8.13,15.23,7,12.54Z"
    />
    <path
      class="st0"
      d="M6.21,6.39c.61-5.24,5.08-7.8,10.15-5.6-2.77.75-4.65,2.73-6.8,4.3A6.55,6.55,0,0,1,6.21,6.39Z"
    />
    <path
      class="st0"
      d="M11.54,19.45a9.62,9.62,0,0,1-6.87-4.16.93.93,0,0,1,0-.87c.52-.65,1.13-1.23,1.85-2A15.63,15.63,0,0,0,11.54,19.45Z"
    />
    <path
      class="st0"
      d="M5.77,9.61c.23.8.44,1.48.6,2.17a.82.82,0,0,1-.12.65c-.7.64-1.44,1.23-2.27,1.93-.28-.93-.6-1.92-.88-2.92A.57.57,0,0,1,3.32,11C4.12,10.5,4.94,10.07,5.77,9.61Z"
    />
    <path
      class="st0"
      d="M5.75,6.82c0,.68,0,1.4,0,2.11a.85.85,0,0,1-.4.52c-.72.41-1.46.76-2.29,1.19a9.25,9.25,0,0,1,.62-4.5Z"
    />
    <path
      class="st0"
      d="M8.18,1.26A8.94,8.94,0,0,0,5.75,6.45L3.86,5.79A9.12,9.12,0,0,1,8.18,1.26Z"
    />
  </g>
  <path
    class="st1"
    d="M47.75,30.64a24.06,24.06,0,0,1-4,15.9c-.54.8.76,1.55,1.3.76a25.44,25.44,0,0,0,4.16-16.66c-.09-.95-1.59-1-1.5,0Z"
  />
  <path
    class="st1"
    d="M65.82,29.63c-.35,6,2.53,11.37,5.41,16.42a.75.75,0,0,0,1.3-.76c-2.76-4.82-5.55-9.92-5.21-15.66.06-1-1.44-1-1.5,0Z"
  />
  <path class="st1" d="M45.76,68l26.83-.45a.75.75,0,0,0,0-1.5l-26.83.45a.75.75,0,0,0,0,1.5Z" />
  <path
    class="st1"
    d="M48.31,31.52a14.86,14.86,0,0,0,18.22-1c.73-.63-.34-1.69-1.06-1.06a13.38,13.38,0,0,1-16.41.79c-.79-.55-1.54.75-.75,1.29Z"
  />
  <path
    class="st1"
    d="M47.47,50.88a1.38,1.38,0,0,1,1.25-1.59.88.88,0,0,1,1,1l-.68,0c0-.25-.14-.43-.38-.42s-.55.45-.53.95c0,.31.14.55.45.54s.37-.14.42-.45l.62,0a1.08,1.08,0,0,1-1.09,1C47.94,52,47.49,51.62,47.47,50.88Z"
  />
  <path
    class="st1"
    d="M50.15,49.31l.86,0c.56,0,.82.22.83.72a.8.8,0,0,1-.53.82l.41,1-.62,0L50.76,51h-.13l-.15.93-.62,0Zm.72,1.15a.33.33,0,0,0,.36-.38c0-.19-.07-.25-.26-.24h-.19l-.1.62Z"
  />
  <path
    class="st1"
    d="M53,51.82a1,1,0,0,1-1-1.08,1.51,1.51,0,0,1,1.31-1.59,1,1,0,0,1,1.09,1.08A1.5,1.5,0,0,1,53,51.82Zm.24-2.11c-.37,0-.61.45-.65.95s.14.55.45.54.6-.45.59-1A.42.42,0,0,0,53.26,49.71Z"
  />
  <path
    class="st1"
    d="M54.41,50.91l.62,0c0,.19.08.31.32.3s.31-.07.31-.26-.07-.18-.32-.24c-.56-.1-.69-.28-.71-.72a1,1,0,0,1,1-.9c.55,0,.87.22.83.78l-.62,0c0-.18-.07-.24-.26-.24s-.24.14-.3.26.07.18.32.24c.5.11.75.29.7.72a1,1,0,0,1-1,.9C54.69,51.77,54.37,51.47,54.41,50.91Z"
  />
  <path
    class="st1"
    d="M56.46,50.85l.62,0c0,.18.07.3.32.3s.31-.08.3-.26-.07-.19-.32-.24c-.56-.11-.69-.29-.7-.72a1,1,0,0,1,1-.9c.56,0,.81.22.77.78l-.62,0c0-.18-.07-.24-.26-.24s-.24.13-.3.26.07.18.32.24c.5.11.75.28.7.72a.88.88,0,0,1-1,.9C56.67,51.71,56.41,51.4,56.46,50.85Z"
  />
  <path
    class="st1"
    d="M58.56,50.53A1.59,1.59,0,0,1,60,48.94c.62,0,.94.28.9,1l-.68,0c0-.25-.07-.43-.32-.42s-.61.45-.65,1c-.06.31.08.55.39.54a.46.46,0,0,0,.48-.45h.62a1.25,1.25,0,0,1-1.21,1C58.84,51.64,58.46,51.28,58.56,50.53Z"
  />
  <path
    class="st1"
    d="M61.87,51.54a.87.87,0,0,1-.9-1.08,1.71,1.71,0,0,1,1.5-1.6.89.89,0,0,1,1,1.08C63.22,50.88,62.62,51.52,61.87,51.54Zm.43-2.12c-.37,0-.66.46-.71.95s.08.56.39.55.67-.45.71-1A.42.42,0,0,0,62.3,49.42Z"
  />
  <path
    class="st1"
    d="M63.57,50.31l.45-1.5.68,0-.45,1.5c-.11.38,0,.56.21.55s.36-.2.48-.51l.51-1.56.68,0-.51,1.63c-.23.69-.59,1-1.21,1C63.61,51.49,63.29,51.13,63.57,50.31Z"
  />
  <path
    class="st1"
    d="M66.44,48.8l.87,0c.55,0,.75.22.7.72a1.16,1.16,0,0,1-.65.83l.21,1-.62,0-.15-.92h-.12l-.28.94-.62,0ZM66.91,50a.41.41,0,0,0,.42-.39c.06-.18-.07-.24-.25-.24h-.19l-.23.63Z"
  />
  <path class="st1" d="M68.81,49.28l-.56,0,.23-.57,1.86-.06-.23.57-.56,0-.74,2-.62,0Z" />
</svg>
