<svg xmlns="http://www.w3.org/2000/svg" width="70" height="70" viewBox="0 0 69.86 90.89">
  <g>
    <path
      d="M70,0,62.36,13.25Q55.88,24.47,49.43,35.71a4.23,4.23,0,0,0-.53,1.93c0,3.75,0,7.49,0,11.23a2.88,2.88,0,0,0,1.1,2.4c6.42,5.93,8.92,13.28,7.06,21.8S49.93,87.13,41.76,89.78A22.59,22.59,0,0,1,12.33,67.17,22.15,22.15,0,0,1,20.23,51a2.05,2.05,0,0,0,.8-1.76Q21,43.42,21,37.58a3.91,3.91,0,0,1,.49-1.83q10-17.37,20-34.73a1.77,1.77,0,0,1,1.79-1c8.46,0,16.93,0,25.39,0ZM22.62,64.45l-.12.48c1.6,1.41,3.1,3,4.82,4.2s2.11,2.46,1.28,4.43a53.5,53.5,0,0,0-1.75,5.92c.53-.29.84-.45,1.14-.63,2.06-1.21,4.13-2.41,6.17-3.67a1.3,1.3,0,0,1,1.57,0c1.48.92,3,1.79,4.49,2.68.85.5,1.71,1,2.74,1.57-.09-.42-.12-.63-.18-.83-.66-2.26-1.3-4.53-2-6.78a1.21,1.21,0,0,1,.42-1.49c1.67-1.41,3.28-2.87,4.92-4.31l1.44-1.29c-.63,0-1-.09-1.32-.1-2.1-.07-4.21-.19-6.31-.16a1.67,1.67,0,0,1-1.81-1.26c-1-2.44-2.07-4.84-3.19-7.45-1.16,2.67-2.25,5.12-3.26,7.59a1.45,1.45,0,0,1-1.58,1.11C27.61,64.41,25.12,64.45,22.62,64.45Zm1.9-22.53V48a22.92,22.92,0,0,1,20.81,0V41.92Z"
      transform="translate(-0.14)"
    />
    <path
      d="M19.28,33.27.14.11C.59.07.9,0,1.2,0c8.51,0,17,0,25.51,0a1.51,1.51,0,0,1,1.55.86c1.37,2.48,2.83,4.91,4.2,7.38a1.54,1.54,0,0,1,.12,1.25q-6.45,11.68-13,23.32C19.55,32.94,19.45,33,19.28,33.27Z"
      transform="translate(-0.14)"
    />
  </g>
</svg>
