<svg xmlns="http://www.w3.org/2000/svg" width="70" height="70" viewBox="0 0 110.16 122.68">
  <defs>
    <style>
      .cls-1 {
        fill: #fff;
      }
      .cls-2 {
        fill: #aeaed7;
      }
    </style>
  </defs>
  <path
    class="cls-1"
    d="M7.14,39.74H8.23l.19,2.47v.48h.11v-.48l.19-2.47H9.81V43H9.24v-2.2l.06-.75H9.19l-.25,3H8l-.25-3H7.65l0,.75V43H7.14Z"
  />
  <path
    class="cls-1"
    d="M11.91,42.33H10.79l-.16.7H10l.79-3.29h1.16L12.71,43h-.64Zm-1-.6h.85l-.38-1.68h-.08Z"
  />
  <path class="cls-1" d="M14.67,42.72h.08v-3h.62V43H14.16l-.39-3h-.08v3h-.62V39.74h1.21Z" />
  <path
    class="cls-1"
    d="M17.65,42.33H16.53l-.15.7h-.65l.78-3.29h1.17L18.46,43h-.65Zm-1-.6h.85l-.38-1.68h-.09Z"
  />
  <path
    class="cls-1"
    d="M19.75,41.37h1.41V43H20.6v-.37h-.09a.58.58,0,0,1-.22.31.75.75,0,0,1-.47.13,1,1,0,0,1-.77-.34,1.25,1.25,0,0,1-.23-.41,1.73,1.73,0,0,1-.08-.58V41a1.6,1.6,0,0,1,.09-.56,1.09,1.09,0,0,1,.25-.42,1,1,0,0,1,.39-.25,1.31,1.31,0,0,1,.5-.09,1.35,1.35,0,0,1,.5.09,1.1,1.1,0,0,1,.37.25,1,1,0,0,1,.24.38,1.45,1.45,0,0,1,.08.47v.06h-.62v-.06a.53.53,0,0,0-.58-.6.59.59,0,0,0-.44.18.85.85,0,0,0-.16.6v.69c0,.51.2.76.62.76a.56.56,0,0,0,.42-.14.57.57,0,0,0,.14-.4h-.79Z"
  />
  <path class="cls-1" d="M21.79,39.74h2.07v.6H22.41v.75h1.4v.59h-1.4v.76h1.51V43H21.79Z" />
  <path
    class="cls-1"
    d="M26.82,43H26.2V42a.27.27,0,0,0-.05-.18.24.24,0,0,0-.2-.07h-.71V43h-.62V39.74h1.26a1.45,1.45,0,0,1,.44.07.92.92,0,0,1,.32.2.72.72,0,0,1,.2.29.81.81,0,0,1,.07.35v.11a.73.73,0,0,1-.11.38.64.64,0,0,1-.33.27v.09a.36.36,0,0,1,.35.39ZM25.24,41.2h.59a.5.5,0,0,0,.34-.11.37.37,0,0,0,.12-.29v-.06a.38.38,0,0,0-.12-.28.45.45,0,0,0-.34-.12h-.59Z"
  />
  <g id="H3oKDA.tif">
    <path
      d="M35,53.14A428.36,428.36,0,0,0,32.34,96.9c-.07,6.81-.32,13.62-.5,20.42a5.18,5.18,0,1,1-10.33-.23q.33-15.65.73-31.28a1.5,1.5,0,0,0-.17-.81c-.11.35-.23.7-.34,1q-4.78,16.31-9.58,32.62A5.17,5.17,0,0,1,2,117.93a6.71,6.71,0,0,1,.33-2.46C6.1,102.41,10,89.38,13.73,76.31a23.88,23.88,0,0,0,.56-5.23c.23-4.07.39-8.14.59-12.22l-.36-.2a37.76,37.76,0,0,0-2.47,4.48c-1.34,3.49-2.47,7-3.71,10.57-1,2.7-3.21,3.87-5.62,3A4.48,4.48,0,0,1,.3,70.82c1.28-3.69,2.5-7.4,3.87-11a20.63,20.63,0,0,1,2.19-4.09c1.63-2.45,3.37-4.83,5.1-7.2a8.84,8.84,0,0,1,7.68-3.82c4.37.06,8.74,0,13.11,0s9.67-3.56,11-7.73c.92-2.91,1.37-6,2-9,.14-.65.13-1.34.25-2a4.31,4.31,0,0,1,4.38-3.43,4.15,4.15,0,0,1,3.92,4.17c-.32,5.53-1.23,11-3.83,15.93-2.48,4.76-6.78,7.45-11.6,9.39C37.27,52.49,36.13,52.78,35,53.14Z"
    />
    <path
      d="M95.27,58.86c.18,3.94.51,7.87.49,11.8,0,5.91,2.33,11.23,3.86,16.74,2.62,9.46,5.47,18.87,8.22,28.3a5.21,5.21,0,0,1-3.55,6.66,5.06,5.06,0,0,1-6.36-3.65q-4.79-16.18-9.53-32.37a2.72,2.72,0,0,0-.58-1.15v1.16q.36,15.27.71,30.52c.08,3.82-2.87,6.38-6.45,5.56a4.94,4.94,0,0,1-3.86-4.83c-.19-7.15-.33-14.29-.49-21.44-.15-6.39-.15-12.79-.5-19.17-.34-5.95-1-11.89-1.6-17.83-.14-1.59-.3-3.18-.42-4.77,0-.7-.24-1.14-1-1.31A24.38,24.38,0,0,1,66,49.33a17.32,17.32,0,0,1-7.55-10.51c-.91-3.65-1.56-7.38-2.12-11.11a4.18,4.18,0,0,1,3.81-4.87c2.29-.23,4.18,1.5,4.63,4A94.55,94.55,0,0,0,67,37.3c1.21,4.07,6.64,7.64,10.91,7.63s8.66.06,13,0a9.11,9.11,0,0,1,7.89,3.92,9.56,9.56,0,0,0,.6.82c5.52,6.2,8,13.86,10.53,21.54.83,2.57-.21,5-2.53,5.79s-4.62-.43-5.54-3c-1.19-3.37-2.27-6.77-3.55-10.1-.69-1.78-1.69-3.43-2.54-5.14Z"
    />
    <path d="M84.68,41.94a11.24,11.24,0,0,1-.13-22.47,11.24,11.24,0,1,1,.13,22.47Z" />
    <path d="M36.71,30.73a11.24,11.24,0,0,1-22.47,0,11.24,11.24,0,1,1,22.47,0Z" />
    <path
      class="cls-2"
      d="M39.53,6.11a10.48,10.48,0,0,1,1.81,1.08C43.27,9.06,45.16,11,47,12.87a2.28,2.28,0,0,1,.15,3.35,2.41,2.41,0,0,1-3.48-.1c-1.88-1.9-3.75-3.82-5.63-5.74a2,2,0,0,1-.46-2.63A8.88,8.88,0,0,1,39.53,6.11Z"
    />
    <path
      class="cls-2"
      d="M57.38,6.49c0,1.3,0,2.6,0,3.9a2.31,2.31,0,0,1-2.26,2.5,2.28,2.28,0,0,1-2.34-2.41q0-4.1,0-8.19a2.29,2.29,0,1,1,4.58,0c0,1.39,0,2.77,0,4.16Z"
    />
    <path
      class="cls-2"
      d="M73.05,8.66a8.91,8.91,0,0,1-1,1.78c-1.83,1.9-3.7,3.78-5.6,5.62a2.3,2.3,0,0,1-3.47.11c-.9-1-.82-2.23.28-3.34C65.12,11,67,9.14,68.81,7.3a2,2,0,0,1,2.62-.51A8.49,8.49,0,0,1,73.05,8.66Z"
    />
  </g>
</svg>
