<svg xmlns="http://www.w3.org/2000/svg" width="70" height="70" viewBox="0 0 55.04 56.6">
  <defs>
    <style>
      .cls-1 {
        fill: #fff;
      }
      .cls-2 {
        fill: #aeaed7;
      }
    </style>
  </defs>
  <g>
    <path
      class="cls-1"
      d="M13.14,4.91c-.4-2.8-4.2-5.5-6.6-4.8v13.2c-1.8-.6-3.5-.8-5.1.3-1.8,1.2-1.8,3-.2,4.4a4.8,4.8,0,0,0,5.9,0,3.57,3.57,0,0,0,1.1-2.3c.1-3.4-.1-6.8-.1-10.2V2.41C10.34,2.21,11.84,3.31,13.14,4.91Zm-.8,18.4a16.33,16.33,0,0,0-3.1-.1A3.26,3.26,0,0,0,6,26.11a3.4,3.4,0,0,0,3.1,3c3.3.5,5-1,5-4.3,0-2.7-.1-5.4-.1-8.1v-4.1A5.17,5.17,0,0,1,19,15c-.4-2.8-4.3-5.4-6.6-4.6C12.34,14.71,12.34,19.11,12.34,23.31Z"
    />
    <path
      d="M55,33.41a33.39,33.39,0,0,1-5.1,12.5,34.83,34.83,0,0,1-3.8,4.8,10,10,0,0,1-8.8,3.2,3.39,3.39,0,0,0-1.9.5,15.65,15.65,0,0,1-9.2,2.1c-5.1-.6-8.1-3.8-9.7-8.4a25.44,25.44,0,0,1-.3-15.2,35.07,35.07,0,0,1,12.4-19.7,17.43,17.43,0,0,1,9.1-4c5.6-.6,9.8,1.7,12.2,6.9a26.68,26.68,0,0,1,1.6,5.7,13.91,13.91,0,0,0,1.2,3.2,35.38,35.38,0,0,1,2.3,5.3ZM40,49.11c.1-.1.3-.1.4-.2,7.3-7.5,11-16.3,9.8-26.8-.2-1.9-1.1-3.7-1.8-5.8-.3.4-.4.5-.3.5a16.67,16.67,0,0,1,.8,2c1.8,5.2,1.4,10.4-.2,15.6A35.39,35.39,0,0,1,39.94,49c-.8.6-1.6,1.3-2.4,1.9-3.5,2.5-7.3,4.1-11.7,3a23.74,23.74,0,0,1-4.1-1.7,10.68,10.68,0,0,0,3.6,2C31.14,55.61,35.84,53.11,40,49.11Zm7.1-22c-.2-1.2-.2-2.6-.5-3.9-.9-3.8-2.8-6.9-6.9-7.8-3-.7-5.9.3-8.5,1.9-7.7,4.7-12.6,15.7-11,24.6.9,4.8,3.9,8,8.2,8.4a11.9,11.9,0,0,0,8.4-2.8C43.44,42.41,46.64,35.51,47.14,27.11Z"
    />
    <path
      d="M13.14,4.91A5.41,5.41,0,0,0,8,2.41v3.1c0,3.4.2,6.8.1,10.2A3.57,3.57,0,0,1,7,18a4.8,4.8,0,0,1-5.9,0,2.58,2.58,0,0,1,.2-4.4c1.6-1.1,3.3-.9,5.1-.3V.11C8.94-.49,12.74,2.21,13.14,4.91Z"
    />
    <path
      d="M12.34,23.31V10.41c2.3-.8,6.2,1.8,6.6,4.6a5.17,5.17,0,0,0-5-2.4v4.1c0,2.7.1,5.4.1,8.1,0,3.3-1.7,4.8-5,4.3a3.4,3.4,0,0,1-3.1-3,3.26,3.26,0,0,1,3.2-2.9C10.14,23.11,11.14,23.31,12.34,23.31Z"
    />
    <path
      class="cls-1"
      d="M47.14,27.11c-.5,8.4-3.7,15.3-10.4,20.4a11.61,11.61,0,0,1-8.4,2.8c-4.3-.4-7.3-3.6-8.2-8.4-1.6-8.9,3.3-19.9,11-24.6a11.63,11.63,0,0,1,8.5-1.9c4.1.9,6,4,6.9,7.8A28.46,28.46,0,0,1,47.14,27.11Zm-20.5,7.6c0,3.4.9,5.4,2.5,6.2a5,5,0,0,0,5.7-.7,12.13,12.13,0,0,0,5.4-10.4c0-2.2-.6-4.3-2.8-5.4s-4.2-.2-6,1.2A12.89,12.89,0,0,0,26.64,34.71Z"
    />
    <path
      class="cls-1"
      d="M39.84,49a34.76,34.76,0,0,0,8.8-14.6c1.5-5.2,2-10.4.2-15.6a16.67,16.67,0,0,0-.8-2s0-.1.3-.5a38.09,38.09,0,0,1,1.8,5.8c1.2,10.5-2.5,19.3-9.8,26.8-.1.1-.2.1-.4.2A.1.1,0,0,0,39.84,49Z"
    />
    <path
      class="cls-1"
      d="M40,49.11c-4.1,4-8.8,6.5-14.8,5a9.21,9.21,0,0,1-3.6-2,23.74,23.74,0,0,0,4.1,1.7c4.4,1.1,8.2-.6,11.7-3,.8-.6,1.6-1.3,2.4-1.9C39.94,49,39.94,49.11,40,49.11Z"
    />
    <path
      class="cls-2"
      d="M26.64,34.71a12.52,12.52,0,0,1,4.8-9c1.7-1.4,3.7-2.3,6-1.2s2.9,3.2,2.8,5.4a12.62,12.62,0,0,1-5.4,10.4c-1.7,1.2-3.7,1.8-5.7.7C27.54,40.11,26.64,38.11,26.64,34.71Z"
    />
  </g>
</svg>
